<svg width="726" height="32" viewBox="0 0 726 32" fill="none" xmlns="http://www.w3.org/2000/svg">
<path d="M57.8793 31.7534C58.3536 32.0363 58.9675 31.8812 59.2504 31.4068C59.5333 30.9325 59.3781 30.3187 58.9038 30.0358L57.8793 31.7534ZM19.3057 27.4528C23.2152 26.6779 29.8794 25.958 37.079 26.3402C44.2921 26.7231 51.9333 28.2069 57.8793 31.7534L58.9038 30.0358C52.5591 26.2514 44.5464 24.7338 37.1851 24.343C29.8103 23.9515 22.9797 24.6856 18.9168 25.491L19.3057 27.4528Z" fill="#C3691A"/>
<path d="M7.57031 22.2461C5.66406 22.2461 4.11328 21.7266 2.91797 20.6875C1.72266 19.6484 1.125 18.2773 1.125 16.5742C1.125 16.0273 1.18359 15.5039 1.30078 15.0039C1.41797 14.5039 1.59766 14.0156 1.83984 13.5391C2.08203 13.0625 2.32422 12.6406 2.56641 12.2734C2.80859 11.9062 3.12109 11.4688 3.50391 10.9609L8.37891 4.80859H12.0117L6.69141 11.5234C7.26172 11.3281 7.73828 11.2305 8.12109 11.2305C9.80078 11.2305 11.1758 11.7344 12.2461 12.7422C13.3164 13.7422 13.8516 15.0469 13.8516 16.6562C13.8516 18.3281 13.2656 19.6797 12.0938 20.7109C10.9219 21.7344 9.41406 22.2461 7.57031 22.2461ZM7.42969 19.9023C8.46094 19.9023 9.26562 19.6094 9.84375 19.0234C10.4297 18.4297 10.7227 17.6523 10.7227 16.6914C10.7227 15.6836 10.4492 14.8906 9.90234 14.3125C9.35547 13.7266 8.54297 13.4336 7.46484 13.4336C6.37109 13.4336 5.56641 13.7266 5.05078 14.3125C4.53516 14.8984 4.27734 15.6992 4.27734 16.7148C4.27734 17.6758 4.55078 18.4492 5.09766 19.0352C5.64453 19.6133 6.42188 19.9023 7.42969 19.9023ZM20.4961 19.2695C20.9414 19.6289 21.4766 19.8086 22.1016 19.8086C22.7266 19.8086 23.2578 19.6289 23.6953 19.2695C24.1406 18.9102 24.4766 18.4141 24.7031 17.7812C24.9375 17.1406 25.1055 16.4609 25.207 15.7422C25.3086 15.0156 25.3594 14.2109 25.3594 13.3281C25.3594 9.09375 24.2734 6.97656 22.1016 6.97656C19.9453 6.97656 18.8516 9.07812 18.8203 13.2812C18.8203 14.1719 18.8711 14.9805 18.9727 15.707C19.0742 16.4336 19.2422 17.1211 19.4766 17.7695C19.7109 18.4102 20.0508 18.9102 20.4961 19.2695ZM24.5977 21.7773C23.8633 22.0898 23.0312 22.2461 22.1016 22.2461C21.1719 22.2461 20.3359 22.0898 19.5938 21.7773C18.8516 21.457 18.2383 21.0273 17.7539 20.4883C17.2695 19.9414 16.8633 19.2891 16.5352 18.5312C16.2148 17.7734 15.9844 16.9727 15.8438 16.1289C15.7109 15.2852 15.6445 14.3828 15.6445 13.4219C15.6445 12.4453 15.7148 11.5312 15.8555 10.6797C15.9961 9.82031 16.2305 9.01172 16.5586 8.25391C16.8867 7.48828 17.293 6.83594 17.7773 6.29688C18.2695 5.75781 18.8828 5.33203 19.6172 5.01953C20.3516 4.69922 21.1797 4.53906 22.1016 4.53906C23.0234 4.53906 23.8516 4.69922 24.5859 5.01953C25.3203 5.33203 25.9297 5.76172 26.4141 6.30859C26.8984 6.84766 27.3008 7.5 27.6211 8.26562C27.9492 9.02344 28.1836 9.82812 28.3242 10.6797C28.4648 11.5312 28.5352 12.4453 28.5352 13.4219C28.5352 14.3828 28.4648 15.2852 28.3242 16.1289C28.1914 16.9727 27.9648 17.7773 27.6445 18.543C27.3242 19.3008 26.9219 19.9492 26.4375 20.4883C25.9531 21.0273 25.3398 21.457 24.5977 21.7773ZM35.4492 20.2891V15.5078H30.6562V13.2695H35.4609V8.48828H37.7812V13.2695H42.5508V15.5078H37.7695V20.2891H35.4492ZM55.0312 22V7.375H50.0273V4.83203H63.1992V7.375H58.2188V22H55.0312ZM64.9336 22V9.12109H67.5117L67.9102 11.0898C68.7539 9.73828 69.9766 9.0625 71.5781 9.0625C71.9141 9.0625 72.1875 9.07812 72.3984 9.10938L72.3516 11.6758C72.0391 11.6289 71.7148 11.6055 71.3789 11.6055C70.2461 11.6055 69.3984 11.9062 68.8359 12.5078C68.2812 13.1094 68.0039 13.9453 68.0039 15.0156V22H64.9336ZM83.5664 20.9922C82.543 21.8281 81.1953 22.2461 79.5234 22.2461C77.8516 22.2461 76.5039 21.8281 75.4805 20.9922C74.4648 20.1562 73.957 18.9297 73.957 17.3125V9.12109H77.0391V17.1953C77.0391 18.1562 77.2383 18.8516 77.6367 19.2812C78.043 19.7109 78.6836 19.9258 79.5586 19.9258C80.418 19.9258 81.043 19.7148 81.4336 19.293C81.832 18.8633 82.0312 18.1641 82.0312 17.1953V9.12109H85.1016V17.3125C85.1016 18.9219 84.5898 20.1484 83.5664 20.9922ZM92.0273 22.2344C90.1289 22.2344 88.6094 21.9102 87.4688 21.2617L87.7852 18.9531C88.3008 19.2344 88.957 19.4883 89.7539 19.7148C90.5508 19.9336 91.2773 20.043 91.9336 20.043C92.6133 20.043 93.1406 19.918 93.5156 19.668C93.8984 19.4102 94.0938 19.0352 94.1016 18.543C94.1016 18.0977 93.9219 17.7461 93.5625 17.4883C93.2109 17.2305 92.5352 16.9102 91.5352 16.5273C91.1914 16.4023 90.9688 16.3203 90.8672 16.2812C89.6797 15.8203 88.8242 15.3086 88.3008 14.7461C87.7773 14.1758 87.5156 13.4062 87.5156 12.4375C87.5156 11.2656 87.9375 10.3672 88.7812 9.74219C89.6328 9.11719 90.8164 8.80469 92.332 8.80469C93.9727 8.80469 95.4141 9.11328 96.6562 9.73047L95.8945 11.8516C94.668 11.2812 93.5 10.9961 92.3906 10.9961C91.7734 10.9961 91.2891 11.1016 90.9375 11.3125C90.5938 11.5156 90.4219 11.8281 90.4219 12.25C90.4219 12.6484 90.5898 12.9609 90.9258 13.1875C91.2617 13.4062 91.918 13.6953 92.8945 14.0547C92.9258 14.0625 93.0273 14.0977 93.1992 14.1602C93.3711 14.2227 93.5039 14.2734 93.5977 14.3125C94.7773 14.7422 95.6445 15.2578 96.1992 15.8594C96.7539 16.4531 97.0312 17.2305 97.0312 18.1914C97.0234 19.4805 96.5859 20.4766 95.7188 21.1797C94.8516 21.8828 93.6211 22.2344 92.0273 22.2344ZM104.613 22.1758C103.738 22.1758 103.008 22.0742 102.422 21.8711C101.844 21.6602 101.391 21.332 101.062 20.8867C100.734 20.4414 100.5 19.918 100.359 19.3164C100.227 18.707 100.16 17.957 100.16 17.0664V10.9844H98.0508L98.168 9.32031L100.371 9.12109L101.355 5.62891L103.23 5.61719V9.12109H106.43V10.9844H103.23V17.125C103.23 18.1016 103.371 18.7969 103.652 19.2109C103.934 19.625 104.453 19.832 105.211 19.832C105.656 19.832 106.133 19.793 106.641 19.7148L106.723 21.918C106.707 21.918 106.609 21.9375 106.43 21.9766C106.258 22.0078 106.09 22.0352 105.926 22.0586C105.77 22.0898 105.566 22.1172 105.316 22.1406C105.066 22.1641 104.832 22.1758 104.613 22.1758ZM114.727 22.2461C112.656 22.2461 111.043 21.6523 109.887 20.4648C108.738 19.2695 108.164 17.6211 108.164 15.5195C108.164 13.4727 108.707 11.8438 109.793 10.6328C110.879 9.42188 112.359 8.8125 114.234 8.80469C116.008 8.80469 117.383 9.35938 118.359 10.4688C119.344 11.5781 119.836 13.0508 119.836 14.8867C119.836 15.0195 119.832 15.2344 119.824 15.5312C119.824 15.8281 119.824 16.0469 119.824 16.1875H111.258C111.289 17.3906 111.617 18.3242 112.242 18.9883C112.875 19.6445 113.742 19.9727 114.844 19.9727C116.25 19.9727 117.602 19.6055 118.898 18.8711L119.332 21.0508C118.043 21.8477 116.508 22.2461 114.727 22.2461ZM111.316 14.2539H116.941C116.941 13.207 116.703 12.4023 116.227 11.8398C115.75 11.2773 115.09 10.9961 114.246 10.9961C113.457 10.9961 112.789 11.2695 112.242 11.8164C111.703 12.3633 111.395 13.1758 111.316 14.2539ZM127.137 22.2461C125.457 22.2461 124.137 21.6289 123.176 20.3945C122.215 19.1602 121.734 17.5117 121.734 15.4492C121.734 13.4492 122.211 11.8438 123.164 10.6328C124.125 9.41406 125.445 8.80469 127.125 8.80469C128.953 8.80469 130.246 9.45312 131.004 10.75C130.926 9.98438 130.887 9.24609 130.887 8.53516V4.375L133.957 4.17578V22H131.297L130.957 20.2422C130.824 20.4531 130.699 20.6367 130.582 20.793C130.473 20.9414 130.309 21.1172 130.09 21.3203C129.871 21.5156 129.633 21.6758 129.375 21.8008C129.125 21.918 128.805 22.0195 128.414 22.1055C128.031 22.1992 127.605 22.2461 127.137 22.2461ZM127.863 19.9141C129.926 19.9141 130.973 18.5117 131.004 15.707C131.004 14.1211 130.738 12.9648 130.207 12.2383C129.676 11.5117 128.883 11.1484 127.828 11.1484C126.906 11.1484 126.168 11.5195 125.613 12.2617C125.066 12.9961 124.793 14.082 124.793 15.5195C124.793 16.9492 125.066 18.0391 125.613 18.7891C126.168 19.5391 126.918 19.9141 127.863 19.9141ZM150.363 22.2461C149.488 22.2461 148.691 22.0547 147.973 21.6719C147.262 21.2812 146.746 20.8398 146.426 20.3477L146.121 21.9883H143.461V4.375L146.531 4.17578V8.16016C146.531 8.93359 146.508 9.8125 146.461 10.7969C147.477 9.46875 148.801 8.80469 150.434 8.80469C152.074 8.80469 153.359 9.41406 154.289 10.6328C155.227 11.8516 155.695 13.4453 155.695 15.4141C155.695 17.4609 155.211 19.1133 154.242 20.3711C153.281 21.6211 151.988 22.2461 150.363 22.2461ZM149.625 19.9141C150.539 19.9141 151.27 19.5273 151.816 18.7539C152.363 17.9805 152.637 16.8828 152.637 15.4609C152.637 14.0312 152.367 12.9492 151.828 12.2148C151.297 11.4805 150.574 11.1133 149.66 11.1133C147.582 11.1133 146.531 12.5156 146.508 15.3203C146.508 16.8984 146.77 18.0586 147.293 18.8008C147.816 19.543 148.594 19.9141 149.625 19.9141ZM158.812 27.4258C158.312 27.4258 157.781 27.3945 157.219 27.332L157.066 24.9531C157.426 24.9922 157.883 25.0117 158.438 25.0117C159.148 25.0117 159.719 24.8711 160.148 24.5898C160.578 24.3086 160.934 23.8086 161.215 23.0898C161.246 23.0117 161.402 22.5703 161.684 21.7656L156.504 9.12109H159.785L163.172 18.4609C163.422 17.5312 163.98 15.8047 164.848 13.2812C165.723 10.7578 166.203 9.37109 166.289 9.12109H169.57C166 18.5586 164.199 23.3164 164.168 23.3945C163.613 24.8398 162.914 25.8711 162.07 26.4883C161.227 27.1133 160.141 27.4258 158.812 27.4258ZM185.52 22.2461C182.902 22.2461 180.855 21.457 179.379 19.8789C177.91 18.3008 177.176 16.1406 177.176 13.3984C177.176 11.6562 177.52 10.125 178.207 8.80469C178.895 7.47656 179.906 6.44141 181.242 5.69922C182.578 4.95703 184.156 4.58594 185.977 4.58594C188.062 4.58594 189.852 5.03516 191.344 5.93359L190.312 8.30078C188.891 7.53516 187.465 7.15234 186.035 7.15234C184.301 7.15234 182.938 7.71484 181.945 8.83984C180.953 9.96484 180.457 11.4961 180.457 13.4336C180.457 15.3555 180.898 16.875 181.781 17.9922C182.664 19.1094 183.957 19.668 185.66 19.668C186.754 19.668 187.746 19.4961 188.637 19.1523V15.168H185.039L185.062 12.6719H191.625V20.957C190.562 21.3945 189.555 21.7188 188.602 21.9297C187.656 22.1406 186.629 22.2461 185.52 22.2461ZM200.355 19.9141C201.395 19.9141 202.176 19.5352 202.699 18.7773C203.223 18.0195 203.484 16.9336 203.484 15.5195C203.484 14.0898 203.223 13 202.699 12.25C202.176 11.5 201.387 11.125 200.332 11.125C199.293 11.125 198.508 11.5039 197.977 12.2617C197.453 13.0117 197.191 14.1016 197.191 15.5312C197.191 16.9375 197.457 18.0195 197.988 18.7773C198.52 19.5352 199.309 19.9141 200.355 19.9141ZM200.273 22.2461C198.367 22.2461 196.867 21.6289 195.773 20.3945C194.68 19.1602 194.133 17.5352 194.133 15.5195C194.133 13.4414 194.68 11.8047 195.773 10.6094C196.867 9.40625 198.41 8.80469 200.402 8.80469C202.324 8.80469 203.828 9.41797 204.914 10.6445C206.008 11.8633 206.555 13.4883 206.555 15.5195C206.555 17.5742 206.004 19.2109 204.902 20.4297C203.801 21.6406 202.258 22.2461 200.273 22.2461ZM212.484 22L207.352 9.12109H210.609C210.734 9.47266 211.129 10.5664 211.793 12.4023C212.465 14.2305 212.91 15.4766 213.129 16.1406C213.574 17.4375 213.895 18.418 214.09 19.082C214.09 19.0742 214.156 18.8203 214.289 18.3203C214.422 17.8203 214.547 17.3516 214.664 16.9141C214.789 16.4688 214.867 16.1992 214.898 16.1055C214.906 16.0898 215.262 15.0117 215.965 12.8711C216.676 10.7305 217.098 9.48047 217.23 9.12109H220.465L215.59 22H212.484ZM227.93 22.2461C225.859 22.2461 224.246 21.6523 223.09 20.4648C221.941 19.2695 221.367 17.6211 221.367 15.5195C221.367 13.4727 221.91 11.8438 222.996 10.6328C224.082 9.42188 225.562 8.8125 227.438 8.80469C229.211 8.80469 230.586 9.35938 231.562 10.4688C232.547 11.5781 233.039 13.0508 233.039 14.8867C233.039 15.0195 233.035 15.2344 233.027 15.5312C233.027 15.8281 233.027 16.0469 233.027 16.1875H224.461C224.492 17.3906 224.82 18.3242 225.445 18.9883C226.078 19.6445 226.945 19.9727 228.047 19.9727C229.453 19.9727 230.805 19.6055 232.102 18.8711L232.535 21.0508C231.246 21.8477 229.711 22.2461 227.93 22.2461ZM224.52 14.2539H230.145C230.145 13.207 229.906 12.4023 229.43 11.8398C228.953 11.2773 228.293 10.9961 227.449 10.9961C226.66 10.9961 225.992 11.2695 225.445 11.8164C224.906 12.3633 224.598 13.1758 224.52 14.2539ZM235.559 22V9.12109H238.137L238.535 11.0898C239.379 9.73828 240.602 9.0625 242.203 9.0625C242.539 9.0625 242.812 9.07812 243.023 9.10938L242.977 11.6758C242.664 11.6289 242.34 11.6055 242.004 11.6055C240.871 11.6055 240.023 11.9062 239.461 12.5078C238.906 13.1094 238.629 13.9453 238.629 15.0156V22H235.559ZM244.898 22V9.12109H247.371L247.711 10.75C249.023 9.45312 250.48 8.80469 252.082 8.80469C253.582 8.80469 254.703 9.23828 255.445 10.1055C256.195 10.9648 256.57 12.2148 256.57 13.8555V22H253.488V14.2305C253.48 13.1914 253.312 12.4141 252.984 11.8984C252.656 11.3828 252.066 11.125 251.215 11.125C250.551 11.125 249.941 11.2969 249.387 11.6406C248.84 11.9766 248.441 12.4023 248.191 12.918C248.043 13.5273 247.969 14.4648 247.969 15.7305V22H244.898ZM259.594 22V9.12109H262.078L262.43 10.7617C262.586 10.5664 262.734 10.3945 262.875 10.2461C263.023 10.0898 263.223 9.91797 263.473 9.73047C263.73 9.53516 264 9.375 264.281 9.25C264.57 9.125 264.922 9.01953 265.336 8.93359C265.758 8.84766 266.207 8.80469 266.684 8.80469C267.707 8.80469 268.523 9.01172 269.133 9.42578C269.75 9.83984 270.184 10.3242 270.434 10.8789C270.895 10.2148 271.492 9.70312 272.227 9.34375C272.961 8.98438 273.777 8.80469 274.676 8.80469C276.152 8.80469 277.234 9.22266 277.922 10.0586C278.617 10.8945 278.965 12.1328 278.965 13.7734V22H275.883V14.6875C275.883 13.4297 275.742 12.5234 275.461 11.9688C275.188 11.4062 274.66 11.125 273.879 11.125C272.684 11.125 271.824 11.6641 271.301 12.7422C271.082 13.2188 270.934 13.793 270.855 14.4648V22H267.785V14.5469C267.785 13.3984 267.633 12.543 267.328 11.9805C267.023 11.418 266.473 11.1367 265.676 11.1367C265.027 11.1367 264.469 11.3008 264 11.6289C263.531 11.957 263.176 12.3867 262.934 12.918C262.754 13.707 262.664 14.6523 262.664 15.7539V22H259.594ZM287.953 22.2461C285.883 22.2461 284.27 21.6523 283.113 20.4648C281.965 19.2695 281.391 17.6211 281.391 15.5195C281.391 13.4727 281.934 11.8438 283.02 10.6328C284.105 9.42188 285.586 8.8125 287.461 8.80469C289.234 8.80469 290.609 9.35938 291.586 10.4688C292.57 11.5781 293.062 13.0508 293.062 14.8867C293.062 15.0195 293.059 15.2344 293.051 15.5312C293.051 15.8281 293.051 16.0469 293.051 16.1875H284.484C284.516 17.3906 284.844 18.3242 285.469 18.9883C286.102 19.6445 286.969 19.9727 288.07 19.9727C289.477 19.9727 290.828 19.6055 292.125 18.8711L292.559 21.0508C291.27 21.8477 289.734 22.2461 287.953 22.2461ZM284.543 14.2539H290.168C290.168 13.207 289.93 12.4023 289.453 11.8398C288.977 11.2773 288.316 10.9961 287.473 10.9961C286.684 10.9961 286.016 11.2695 285.469 11.8164C284.93 12.3633 284.621 13.1758 284.543 14.2539ZM295.57 22V9.12109H298.043L298.383 10.75C299.695 9.45312 301.152 8.80469 302.754 8.80469C304.254 8.80469 305.375 9.23828 306.117 10.1055C306.867 10.9648 307.242 12.2148 307.242 13.8555V22H304.16V14.2305C304.152 13.1914 303.984 12.4141 303.656 11.8984C303.328 11.3828 302.738 11.125 301.887 11.125C301.223 11.125 300.613 11.2969 300.059 11.6406C299.512 11.9766 299.113 12.4023 298.863 12.918C298.715 13.5273 298.641 14.4648 298.641 15.7305V22H295.57ZM315.41 22.1758C314.535 22.1758 313.805 22.0742 313.219 21.8711C312.641 21.6602 312.188 21.332 311.859 20.8867C311.531 20.4414 311.297 19.918 311.156 19.3164C311.023 18.707 310.957 17.957 310.957 17.0664V10.9844H308.848L308.965 9.32031L311.168 9.12109L312.152 5.62891L314.027 5.61719V9.12109H317.227V10.9844H314.027V17.125C314.027 18.1016 314.168 18.7969 314.449 19.2109C314.73 19.625 315.25 19.832 316.008 19.832C316.453 19.832 316.93 19.793 317.438 19.7148L317.52 21.918C317.504 21.918 317.406 21.9375 317.227 21.9766C317.055 22.0078 316.887 22.0352 316.723 22.0586C316.566 22.0898 316.363 22.1172 316.113 22.1406C315.863 22.1641 315.629 22.1758 315.41 22.1758ZM326.332 22V4.83203H336.738L336.609 7.35156H329.508V11.7812H336.258V14.3008H329.508V19.4688H336.867L336.762 22H326.332ZM339.539 22V9.12109H342.012L342.352 10.75C343.664 9.45312 345.121 8.80469 346.723 8.80469C348.223 8.80469 349.344 9.23828 350.086 10.1055C350.836 10.9648 351.211 12.2148 351.211 13.8555V22H348.129V14.2305C348.121 13.1914 347.953 12.4141 347.625 11.8984C347.297 11.3828 346.707 11.125 345.855 11.125C345.191 11.125 344.582 11.2969 344.027 11.6406C343.48 11.9766 343.082 12.4023 342.832 12.918C342.684 13.5273 342.609 14.4648 342.609 15.7305V22H339.539ZM359.379 22.1758C358.504 22.1758 357.773 22.0742 357.188 21.8711C356.609 21.6602 356.156 21.332 355.828 20.8867C355.5 20.4414 355.266 19.918 355.125 19.3164C354.992 18.707 354.926 17.957 354.926 17.0664V10.9844H352.816L352.934 9.32031L355.137 9.12109L356.121 5.62891L357.996 5.61719V9.12109H361.195V10.9844H357.996V17.125C357.996 18.1016 358.137 18.7969 358.418 19.2109C358.699 19.625 359.219 19.832 359.977 19.832C360.422 19.832 360.898 19.793 361.406 19.7148L361.488 21.918C361.473 21.918 361.375 21.9375 361.195 21.9766C361.023 22.0078 360.855 22.0352 360.691 22.0586C360.535 22.0898 360.332 22.1172 360.082 22.1406C359.832 22.1641 359.598 22.1758 359.379 22.1758ZM363.727 22V9.12109H366.797V22H363.727ZM363.727 7.24609V4.62109H366.809V7.24609H363.727ZM375.152 22.1758C374.277 22.1758 373.547 22.0742 372.961 21.8711C372.383 21.6602 371.93 21.332 371.602 20.8867C371.273 20.4414 371.039 19.918 370.898 19.3164C370.766 18.707 370.699 17.957 370.699 17.0664V10.9844H368.59L368.707 9.32031L370.91 9.12109L371.895 5.62891L373.77 5.61719V9.12109H376.969V10.9844H373.77V17.125C373.77 18.1016 373.91 18.7969 374.191 19.2109C374.473 19.625 374.992 19.832 375.75 19.832C376.195 19.832 376.672 19.793 377.18 19.7148L377.262 21.918C377.246 21.918 377.148 21.9375 376.969 21.9766C376.797 22.0078 376.629 22.0352 376.465 22.0586C376.309 22.0898 376.105 22.1172 375.855 22.1406C375.605 22.1641 375.371 22.1758 375.152 22.1758ZM379.5 22V9.12109H382.57V22H379.5ZM379.5 7.24609V4.62109H382.582V7.24609H379.5ZM391.734 22.2461C389.664 22.2461 388.051 21.6523 386.895 20.4648C385.746 19.2695 385.172 17.6211 385.172 15.5195C385.172 13.4727 385.715 11.8438 386.801 10.6328C387.887 9.42188 389.367 8.8125 391.242 8.80469C393.016 8.80469 394.391 9.35938 395.367 10.4688C396.352 11.5781 396.844 13.0508 396.844 14.8867C396.844 15.0195 396.84 15.2344 396.832 15.5312C396.832 15.8281 396.832 16.0469 396.832 16.1875H388.266C388.297 17.3906 388.625 18.3242 389.25 18.9883C389.883 19.6445 390.75 19.9727 391.852 19.9727C393.258 19.9727 394.609 19.6055 395.906 18.8711L396.34 21.0508C395.051 21.8477 393.516 22.2461 391.734 22.2461ZM388.324 14.2539H393.949C393.949 13.207 393.711 12.4023 393.234 11.8398C392.758 11.2773 392.098 10.9961 391.254 10.9961C390.465 10.9961 389.797 11.2695 389.25 11.8164C388.711 12.3633 388.402 13.1758 388.324 14.2539ZM403.465 22.2344C401.566 22.2344 400.047 21.9102 398.906 21.2617L399.223 18.9531C399.738 19.2344 400.395 19.4883 401.191 19.7148C401.988 19.9336 402.715 20.043 403.371 20.043C404.051 20.043 404.578 19.918 404.953 19.668C405.336 19.4102 405.531 19.0352 405.539 18.543C405.539 18.0977 405.359 17.7461 405 17.4883C404.648 17.2305 403.973 16.9102 402.973 16.5273C402.629 16.4023 402.406 16.3203 402.305 16.2812C401.117 15.8203 400.262 15.3086 399.738 14.7461C399.215 14.1758 398.953 13.4062 398.953 12.4375C398.953 11.2656 399.375 10.3672 400.219 9.74219C401.07 9.11719 402.254 8.80469 403.77 8.80469C405.41 8.80469 406.852 9.11328 408.094 9.73047L407.332 11.8516C406.105 11.2812 404.938 10.9961 403.828 10.9961C403.211 10.9961 402.727 11.1016 402.375 11.3125C402.031 11.5156 401.859 11.8281 401.859 12.25C401.859 12.6484 402.027 12.9609 402.363 13.1875C402.699 13.4062 403.355 13.6953 404.332 14.0547C404.363 14.0625 404.465 14.0977 404.637 14.1602C404.809 14.2227 404.941 14.2734 405.035 14.3125C406.215 14.7422 407.082 15.2578 407.637 15.8594C408.191 16.4531 408.469 17.2305 408.469 18.1914C408.461 19.4805 408.023 20.4766 407.156 21.1797C406.289 21.8828 405.059 22.2344 403.465 22.2344ZM420.656 22.2461C419.461 22.2461 418.492 21.918 417.75 21.2617C417.016 20.5977 416.648 19.6445 416.648 18.4023C416.648 17.0664 417.086 16.0781 417.961 15.4375C418.836 14.7891 420.156 14.3789 421.922 14.207C422.164 14.1758 422.426 14.1445 422.707 14.1133C422.988 14.082 423.305 14.0508 423.656 14.0195C424.008 13.9883 424.285 13.9609 424.488 13.9375V13.2578C424.488 12.4766 424.309 11.9102 423.949 11.5586C423.59 11.1992 423.043 11.0195 422.309 11.0195C421.262 11.0195 419.969 11.3125 418.43 11.8984C418.422 11.875 418.293 11.5195 418.043 10.832C417.793 10.1445 417.664 9.79297 417.656 9.77734C419.172 9.12891 420.812 8.80469 422.578 8.80469C424.312 8.80469 425.574 9.18359 426.363 9.94141C427.152 10.6914 427.547 11.9102 427.547 13.5977V22H425.273C425.266 21.9688 425.18 21.707 425.016 21.2148C424.852 20.7227 424.77 20.4609 424.77 20.4297C424.129 21.0547 423.5 21.5156 422.883 21.8125C422.273 22.1016 421.531 22.2461 420.656 22.2461ZM421.488 20.0664C422.199 20.0664 422.816 19.8984 423.34 19.5625C423.871 19.2188 424.25 18.8047 424.477 18.3203V15.8359C424.453 15.8359 424.246 15.8516 423.855 15.8828C423.473 15.9141 423.266 15.9297 423.234 15.9297C421.992 16.0391 421.082 16.2734 420.504 16.6328C419.926 16.9922 419.637 17.5703 419.637 18.3672C419.637 18.9141 419.797 19.3359 420.117 19.6328C420.438 19.9219 420.895 20.0664 421.488 20.0664ZM430.641 22V9.12109H433.113L433.453 10.75C434.766 9.45312 436.223 8.80469 437.824 8.80469C439.324 8.80469 440.445 9.23828 441.188 10.1055C441.938 10.9648 442.312 12.2148 442.312 13.8555V22H439.23V14.2305C439.223 13.1914 439.055 12.4141 438.727 11.8984C438.398 11.3828 437.809 11.125 436.957 11.125C436.293 11.125 435.684 11.2969 435.129 11.6406C434.582 11.9766 434.184 12.4023 433.934 12.918C433.785 13.5273 433.711 14.4648 433.711 15.7305V22H430.641ZM450.129 22.2461C448.449 22.2461 447.129 21.6289 446.168 20.3945C445.207 19.1602 444.727 17.5117 444.727 15.4492C444.727 13.4492 445.203 11.8438 446.156 10.6328C447.117 9.41406 448.438 8.80469 450.117 8.80469C451.945 8.80469 453.238 9.45312 453.996 10.75C453.918 9.98438 453.879 9.24609 453.879 8.53516V4.375L456.949 4.17578V22H454.289L453.949 20.2422C453.816 20.4531 453.691 20.6367 453.574 20.793C453.465 20.9414 453.301 21.1172 453.082 21.3203C452.863 21.5156 452.625 21.6758 452.367 21.8008C452.117 21.918 451.797 22.0195 451.406 22.1055C451.023 22.1992 450.598 22.2461 450.129 22.2461ZM450.855 19.9141C452.918 19.9141 453.965 18.5117 453.996 15.707C453.996 14.1211 453.73 12.9648 453.199 12.2383C452.668 11.5117 451.875 11.1484 450.82 11.1484C449.898 11.1484 449.16 11.5195 448.605 12.2617C448.059 12.9961 447.785 14.082 447.785 15.5195C447.785 16.9492 448.059 18.0391 448.605 18.7891C449.16 19.5391 449.91 19.9141 450.855 19.9141ZM471.562 22.2344C469.492 22.2344 467.637 21.7578 465.996 20.8047L466.77 18.2852C467.504 18.6914 468.301 19.0195 469.16 19.2695C470.027 19.5195 470.871 19.6445 471.691 19.6445C472.699 19.6445 473.461 19.4297 473.977 19C474.492 18.5625 474.75 17.9375 474.75 17.125C474.75 16.0469 474.031 15.3008 472.594 14.8867C472.492 14.8555 472.207 14.7734 471.738 14.6406C471.27 14.5 470.828 14.3672 470.414 14.2422C470.008 14.1094 469.715 14.0078 469.535 13.9375C467.23 13.125 466.078 11.6094 466.078 9.39062C466.078 7.83594 466.629 6.63672 467.73 5.79297C468.84 4.94922 470.309 4.52734 472.137 4.52734C474.207 4.52734 475.992 4.95312 477.492 5.80469L476.531 8.125C475 7.4375 473.578 7.09375 472.266 7.09375C471.32 7.09375 470.605 7.26172 470.121 7.59766C469.645 7.92578 469.391 8.47656 469.359 9.25C469.359 10.2031 469.832 10.8242 470.777 11.1133C470.965 11.1836 471.426 11.3359 472.16 11.5703C472.895 11.8047 473.371 11.957 473.59 12.0273C475.16 12.543 476.281 13.1836 476.953 13.9492C477.633 14.7148 477.973 15.7812 477.973 17.1484C477.973 18.7812 477.395 20.0391 476.238 20.9219C475.082 21.7969 473.523 22.2344 471.562 22.2344ZM485.543 22.1758C484.668 22.1758 483.938 22.0742 483.352 21.8711C482.773 21.6602 482.32 21.332 481.992 20.8867C481.664 20.4414 481.43 19.918 481.289 19.3164C481.156 18.707 481.09 17.957 481.09 17.0664V10.9844H478.98L479.098 9.32031L481.301 9.12109L482.285 5.62891L484.16 5.61719V9.12109H487.359V10.9844H484.16V17.125C484.16 18.1016 484.301 18.7969 484.582 19.2109C484.863 19.625 485.383 19.832 486.141 19.832C486.586 19.832 487.062 19.793 487.57 19.7148L487.652 21.918C487.637 21.918 487.539 21.9375 487.359 21.9766C487.188 22.0078 487.02 22.0352 486.855 22.0586C486.699 22.0898 486.496 22.1172 486.246 22.1406C485.996 22.1641 485.762 22.1758 485.543 22.1758ZM495.656 22.2461C493.586 22.2461 491.973 21.6523 490.816 20.4648C489.668 19.2695 489.094 17.6211 489.094 15.5195C489.094 13.4727 489.637 11.8438 490.723 10.6328C491.809 9.42188 493.289 8.8125 495.164 8.80469C496.938 8.80469 498.312 9.35938 499.289 10.4688C500.273 11.5781 500.766 13.0508 500.766 14.8867C500.766 15.0195 500.762 15.2344 500.754 15.5312C500.754 15.8281 500.754 16.0469 500.754 16.1875H492.188C492.219 17.3906 492.547 18.3242 493.172 18.9883C493.805 19.6445 494.672 19.9727 495.773 19.9727C497.18 19.9727 498.531 19.6055 499.828 18.8711L500.262 21.0508C498.973 21.8477 497.438 22.2461 495.656 22.2461ZM492.246 14.2539H497.871C497.871 13.207 497.633 12.4023 497.156 11.8398C496.68 11.2773 496.02 10.9961 495.176 10.9961C494.387 10.9961 493.719 11.2695 493.172 11.8164C492.633 12.3633 492.324 13.1758 492.246 14.2539ZM509.227 22.2461C507.156 22.2461 505.543 21.6523 504.387 20.4648C503.238 19.2695 502.664 17.6211 502.664 15.5195C502.664 13.4727 503.207 11.8438 504.293 10.6328C505.379 9.42188 506.859 8.8125 508.734 8.80469C510.508 8.80469 511.883 9.35938 512.859 10.4688C513.844 11.5781 514.336 13.0508 514.336 14.8867C514.336 15.0195 514.332 15.2344 514.324 15.5312C514.324 15.8281 514.324 16.0469 514.324 16.1875H505.758C505.789 17.3906 506.117 18.3242 506.742 18.9883C507.375 19.6445 508.242 19.9727 509.344 19.9727C510.75 19.9727 512.102 19.6055 513.398 18.8711L513.832 21.0508C512.543 21.8477 511.008 22.2461 509.227 22.2461ZM505.816 14.2539H511.441C511.441 13.207 511.203 12.4023 510.727 11.8398C510.25 11.2773 509.59 10.9961 508.746 10.9961C507.957 10.9961 507.289 11.2695 506.742 11.8164C506.203 12.3633 505.895 13.1758 505.816 14.2539ZM516.855 22V9.12109H519.434L519.832 11.0898C520.676 9.73828 521.898 9.0625 523.5 9.0625C523.836 9.0625 524.109 9.07812 524.32 9.10938L524.273 11.6758C523.961 11.6289 523.637 11.6055 523.301 11.6055C522.168 11.6055 521.32 11.9062 520.758 12.5078C520.203 13.1094 519.926 13.9453 519.926 15.0156V22H516.855ZM526.266 22V9.12109H529.336V22H526.266ZM526.266 7.24609V4.62109H529.348V7.24609H526.266ZM532.547 22V9.12109H535.02L535.359 10.75C536.672 9.45312 538.129 8.80469 539.73 8.80469C541.23 8.80469 542.352 9.23828 543.094 10.1055C543.844 10.9648 544.219 12.2148 544.219 13.8555V22H541.137V14.2305C541.129 13.1914 540.961 12.4141 540.633 11.8984C540.305 11.3828 539.715 11.125 538.863 11.125C538.199 11.125 537.59 11.2969 537.035 11.6406C536.488 11.9766 536.09 12.4023 535.84 12.918C535.691 13.5273 535.617 14.4648 535.617 15.7305V22H532.547ZM549.82 27.7656L549.645 25.2812H551.203C553.008 25.2812 554.27 25.0391 554.988 24.5547C555.707 24.0781 556.066 23.1992 556.066 21.918C556.066 21.3945 556.043 20.8281 555.996 20.2188C555.793 20.5 555.598 20.7344 555.41 20.9219C555.23 21.1016 555 21.2812 554.719 21.4609C554.445 21.6406 554.113 21.7773 553.723 21.8711C553.34 21.957 552.902 22 552.41 22C550.707 22 549.305 21.3867 548.203 20.1602C547.109 18.9336 546.562 17.3516 546.562 15.4141C546.562 14.3828 546.715 13.4453 547.02 12.6016C547.324 11.75 547.738 11.0508 548.262 10.5039C548.785 9.95703 549.387 9.53906 550.066 9.25C550.754 8.95312 551.484 8.80469 552.258 8.80469C553.984 8.80469 555.27 9.43359 556.113 10.6914L556.324 9.12109H559.066V21.0859C559.066 21.7266 559.035 22.3008 558.973 22.8086C558.91 23.3242 558.801 23.8164 558.645 24.2852C558.488 24.7617 558.281 25.1758 558.023 25.5273C557.773 25.8789 557.457 26.1992 557.074 26.4883C556.691 26.7773 556.238 27.0117 555.715 27.1914C555.199 27.3789 554.598 27.5195 553.91 27.6133C553.223 27.7148 552.449 27.7656 551.59 27.7656H549.82ZM552.902 19.8555C555.02 19.8555 556.09 18.4375 556.113 15.6016V15.1562C556.098 13.8828 555.832 12.8984 555.316 12.2031C554.801 11.5078 554.047 11.1562 553.055 11.1484C551.93 11.1484 551.078 11.5352 550.5 12.3086C549.922 13.0742 549.633 14.1094 549.633 15.4141C549.633 16.6719 549.922 17.7266 550.5 18.5781C551.086 19.4297 551.887 19.8555 552.902 19.8555ZM572.66 18.0273C573.512 19.1133 574.77 19.6562 576.434 19.6562C578.098 19.6562 579.352 19.1172 580.195 18.0391C581.047 16.9531 581.473 15.4219 581.473 13.4453C581.473 11.4453 581.047 9.89453 580.195 8.79297C579.352 7.69141 578.102 7.14062 576.445 7.14062C574.781 7.14062 573.52 7.69531 572.66 8.80469C571.809 9.90625 571.383 11.4531 571.383 13.4453C571.383 15.4141 571.809 16.9414 572.66 18.0273ZM576.422 22.2461C573.836 22.2461 571.793 21.4648 570.293 19.9023C568.801 18.332 568.055 16.168 568.055 13.4102C568.055 10.6367 568.805 8.47266 570.305 6.91797C571.805 5.36328 573.848 4.58594 576.434 4.58594C579.02 4.58594 581.059 5.36719 582.551 6.92969C584.043 8.48438 584.789 10.6484 584.789 13.4219C584.789 16.1641 584.039 18.3203 582.539 19.8906C581.039 21.4609 579 22.2461 576.422 22.2461ZM587.52 22V9.12109H590.098L590.496 11.0898C591.34 9.73828 592.562 9.0625 594.164 9.0625C594.5 9.0625 594.773 9.07812 594.984 9.10938L594.938 11.6758C594.625 11.6289 594.301 11.6055 593.965 11.6055C592.832 11.6055 591.984 11.9062 591.422 12.5078C590.867 13.1094 590.59 13.9453 590.59 15.0156V22H587.52ZM599.297 27.7656L599.121 25.2812H600.68C602.484 25.2812 603.746 25.0391 604.465 24.5547C605.184 24.0781 605.543 23.1992 605.543 21.918C605.543 21.3945 605.52 20.8281 605.473 20.2188C605.27 20.5 605.074 20.7344 604.887 20.9219C604.707 21.1016 604.477 21.2812 604.195 21.4609C603.922 21.6406 603.59 21.7773 603.199 21.8711C602.816 21.957 602.379 22 601.887 22C600.184 22 598.781 21.3867 597.68 20.1602C596.586 18.9336 596.039 17.3516 596.039 15.4141C596.039 14.3828 596.191 13.4453 596.496 12.6016C596.801 11.75 597.215 11.0508 597.738 10.5039C598.262 9.95703 598.863 9.53906 599.543 9.25C600.23 8.95312 600.961 8.80469 601.734 8.80469C603.461 8.80469 604.746 9.43359 605.59 10.6914L605.801 9.12109H608.543V21.0859C608.543 21.7266 608.512 22.3008 608.449 22.8086C608.387 23.3242 608.277 23.8164 608.121 24.2852C607.965 24.7617 607.758 25.1758 607.5 25.5273C607.25 25.8789 606.934 26.1992 606.551 26.4883C606.168 26.7773 605.715 27.0117 605.191 27.1914C604.676 27.3789 604.074 27.5195 603.387 27.6133C602.699 27.7148 601.926 27.7656 601.066 27.7656H599.297ZM602.379 19.8555C604.496 19.8555 605.566 18.4375 605.59 15.6016V15.1562C605.574 13.8828 605.309 12.8984 604.793 12.2031C604.277 11.5078 603.523 11.1562 602.531 11.1484C601.406 11.1484 600.555 11.5352 599.977 12.3086C599.398 13.0742 599.109 14.1094 599.109 15.4141C599.109 16.6719 599.398 17.7266 599.977 18.5781C600.562 19.4297 601.363 19.8555 602.379 19.8555ZM614.977 22.2461C613.781 22.2461 612.812 21.918 612.07 21.2617C611.336 20.5977 610.969 19.6445 610.969 18.4023C610.969 17.0664 611.406 16.0781 612.281 15.4375C613.156 14.7891 614.477 14.3789 616.242 14.207C616.484 14.1758 616.746 14.1445 617.027 14.1133C617.309 14.082 617.625 14.0508 617.977 14.0195C618.328 13.9883 618.605 13.9609 618.809 13.9375V13.2578C618.809 12.4766 618.629 11.9102 618.27 11.5586C617.91 11.1992 617.363 11.0195 616.629 11.0195C615.582 11.0195 614.289 11.3125 612.75 11.8984C612.742 11.875 612.613 11.5195 612.363 10.832C612.113 10.1445 611.984 9.79297 611.977 9.77734C613.492 9.12891 615.133 8.80469 616.898 8.80469C618.633 8.80469 619.895 9.18359 620.684 9.94141C621.473 10.6914 621.867 11.9102 621.867 13.5977V22H619.594C619.586 21.9688 619.5 21.707 619.336 21.2148C619.172 20.7227 619.09 20.4609 619.09 20.4297C618.449 21.0547 617.82 21.5156 617.203 21.8125C616.594 22.1016 615.852 22.2461 614.977 22.2461ZM615.809 20.0664C616.52 20.0664 617.137 19.8984 617.66 19.5625C618.191 19.2188 618.57 18.8047 618.797 18.3203V15.8359C618.773 15.8359 618.566 15.8516 618.176 15.8828C617.793 15.9141 617.586 15.9297 617.555 15.9297C616.312 16.0391 615.402 16.2734 614.824 16.6328C614.246 16.9922 613.957 17.5703 613.957 18.3672C613.957 18.9141 614.117 19.3359 614.438 19.6328C614.758 19.9219 615.215 20.0664 615.809 20.0664ZM624.961 22V9.12109H627.434L627.773 10.75C629.086 9.45312 630.543 8.80469 632.145 8.80469C633.645 8.80469 634.766 9.23828 635.508 10.1055C636.258 10.9648 636.633 12.2148 636.633 13.8555V22H633.551V14.2305C633.543 13.1914 633.375 12.4141 633.047 11.8984C632.719 11.3828 632.129 11.125 631.277 11.125C630.613 11.125 630.004 11.2969 629.449 11.6406C628.902 11.9766 628.504 12.4023 628.254 12.918C628.105 13.5273 628.031 14.4648 628.031 15.7305V22H624.961ZM639.727 22V9.12109H642.797V22H639.727ZM639.727 7.24609V4.62109H642.809V7.24609H639.727ZM645.211 22V20.1367L651.586 11.2539H645.516V9.12109H654.984V11.2188L648.949 19.7617H655.195V22H645.211ZM660.867 22.2461C659.672 22.2461 658.703 21.918 657.961 21.2617C657.227 20.5977 656.859 19.6445 656.859 18.4023C656.859 17.0664 657.297 16.0781 658.172 15.4375C659.047 14.7891 660.367 14.3789 662.133 14.207C662.375 14.1758 662.637 14.1445 662.918 14.1133C663.199 14.082 663.516 14.0508 663.867 14.0195C664.219 13.9883 664.496 13.9609 664.699 13.9375V13.2578C664.699 12.4766 664.52 11.9102 664.16 11.5586C663.801 11.1992 663.254 11.0195 662.52 11.0195C661.473 11.0195 660.18 11.3125 658.641 11.8984C658.633 11.875 658.504 11.5195 658.254 10.832C658.004 10.1445 657.875 9.79297 657.867 9.77734C659.383 9.12891 661.023 8.80469 662.789 8.80469C664.523 8.80469 665.785 9.18359 666.574 9.94141C667.363 10.6914 667.758 11.9102 667.758 13.5977V22H665.484C665.477 21.9688 665.391 21.707 665.227 21.2148C665.062 20.7227 664.98 20.4609 664.98 20.4297C664.34 21.0547 663.711 21.5156 663.094 21.8125C662.484 22.1016 661.742 22.2461 660.867 22.2461ZM661.699 20.0664C662.41 20.0664 663.027 19.8984 663.551 19.5625C664.082 19.2188 664.461 18.8047 664.688 18.3203V15.8359C664.664 15.8359 664.457 15.8516 664.066 15.8828C663.684 15.9141 663.477 15.9297 663.445 15.9297C662.203 16.0391 661.293 16.2734 660.715 16.6328C660.137 16.9922 659.848 17.5703 659.848 18.3672C659.848 18.9141 660.008 19.3359 660.328 19.6328C660.648 19.9219 661.105 20.0664 661.699 20.0664ZM675.996 22.1758C675.121 22.1758 674.391 22.0742 673.805 21.8711C673.227 21.6602 672.773 21.332 672.445 20.8867C672.117 20.4414 671.883 19.918 671.742 19.3164C671.609 18.707 671.543 17.957 671.543 17.0664V10.9844H669.434L669.551 9.32031L671.754 9.12109L672.738 5.62891L674.613 5.61719V9.12109H677.812V10.9844H674.613V17.125C674.613 18.1016 674.754 18.7969 675.035 19.2109C675.316 19.625 675.836 19.832 676.594 19.832C677.039 19.832 677.516 19.793 678.023 19.7148L678.105 21.918C678.09 21.918 677.992 21.9375 677.812 21.9766C677.641 22.0078 677.473 22.0352 677.309 22.0586C677.152 22.0898 676.949 22.1172 676.699 22.1406C676.449 22.1641 676.215 22.1758 675.996 22.1758ZM680.344 22V9.12109H683.414V22H680.344ZM680.344 7.24609V4.62109H683.426V7.24609H680.344ZM692.238 19.9141C693.277 19.9141 694.059 19.5352 694.582 18.7773C695.105 18.0195 695.367 16.9336 695.367 15.5195C695.367 14.0898 695.105 13 694.582 12.25C694.059 11.5 693.27 11.125 692.215 11.125C691.176 11.125 690.391 11.5039 689.859 12.2617C689.336 13.0117 689.074 14.1016 689.074 15.5312C689.074 16.9375 689.34 18.0195 689.871 18.7773C690.402 19.5352 691.191 19.9141 692.238 19.9141ZM692.156 22.2461C690.25 22.2461 688.75 21.6289 687.656 20.3945C686.562 19.1602 686.016 17.5352 686.016 15.5195C686.016 13.4414 686.562 11.8047 687.656 10.6094C688.75 9.40625 690.293 8.80469 692.285 8.80469C694.207 8.80469 695.711 9.41797 696.797 10.6445C697.891 11.8633 698.438 13.4883 698.438 15.5195C698.438 17.5742 697.887 19.2109 696.785 20.4297C695.684 21.6406 694.141 22.2461 692.156 22.2461ZM700.945 22V9.12109H703.418L703.758 10.75C705.07 9.45312 706.527 8.80469 708.129 8.80469C709.629 8.80469 710.75 9.23828 711.492 10.1055C712.242 10.9648 712.617 12.2148 712.617 13.8555V22H709.535V14.2305C709.527 13.1914 709.359 12.4141 709.031 11.8984C708.703 11.3828 708.113 11.125 707.262 11.125C706.598 11.125 705.988 11.2969 705.434 11.6406C704.887 11.9766 704.488 12.4023 704.238 12.918C704.09 13.5273 704.016 14.4648 704.016 15.7305V22H700.945ZM719.754 22.2344C717.855 22.2344 716.336 21.9102 715.195 21.2617L715.512 18.9531C716.027 19.2344 716.684 19.4883 717.48 19.7148C718.277 19.9336 719.004 20.043 719.66 20.043C720.34 20.043 720.867 19.918 721.242 19.668C721.625 19.4102 721.82 19.0352 721.828 18.543C721.828 18.0977 721.648 17.7461 721.289 17.4883C720.938 17.2305 720.262 16.9102 719.262 16.5273C718.918 16.4023 718.695 16.3203 718.594 16.2812C717.406 15.8203 716.551 15.3086 716.027 14.7461C715.504 14.1758 715.242 13.4062 715.242 12.4375C715.242 11.2656 715.664 10.3672 716.508 9.74219C717.359 9.11719 718.543 8.80469 720.059 8.80469C721.699 8.80469 723.141 9.11328 724.383 9.73047L723.621 11.8516C722.395 11.2812 721.227 10.9961 720.117 10.9961C719.5 10.9961 719.016 11.1016 718.664 11.3125C718.32 11.5156 718.148 11.8281 718.148 12.25C718.148 12.6484 718.316 12.9609 718.652 13.1875C718.988 13.4062 719.645 13.6953 720.621 14.0547C720.652 14.0625 720.754 14.0977 720.926 14.1602C721.098 14.2227 721.23 14.2734 721.324 14.3125C722.504 14.7422 723.371 15.2578 723.926 15.8594C724.48 16.4531 724.758 17.2305 724.758 18.1914C724.75 19.4805 724.312 20.4766 723.445 21.1797C722.578 21.8828 721.348 22.2344 719.754 22.2344Z" fill="#343434"/>
</svg>
