<svg width="297" height="27" viewBox="0 0 297 27" fill="none" xmlns="http://www.w3.org/2000/svg">
<path d="M12.0586 11.123C11.1055 11.123 10.3301 10.8633 9.73242 10.3438C9.13477 9.82422 8.83594 9.13867 8.83594 8.28711C8.83594 8.01367 8.86523 7.75195 8.92383 7.50195C8.98242 7.25195 9.07227 7.00781 9.19336 6.76953C9.31445 6.53125 9.43555 6.32031 9.55664 6.13672C9.67773 5.95312 9.83398 5.73438 10.0254 5.48047L12.4629 2.4043H14.2793L11.6191 5.76172C11.9043 5.66406 12.1426 5.61523 12.334 5.61523C13.1738 5.61523 13.8613 5.86719 14.3965 6.37109C14.9316 6.87109 15.1992 7.52344 15.1992 8.32812C15.1992 9.16406 14.9062 9.83984 14.3203 10.3555C13.7344 10.8672 12.9805 11.123 12.0586 11.123ZM11.9883 9.95117C12.5039 9.95117 12.9062 9.80469 13.1953 9.51172C13.4883 9.21484 13.6348 8.82617 13.6348 8.3457C13.6348 7.8418 13.498 7.44531 13.2246 7.15625C12.9512 6.86328 12.5449 6.7168 12.0059 6.7168C11.459 6.7168 11.0566 6.86328 10.7988 7.15625C10.541 7.44922 10.4121 7.84961 10.4121 8.35742C10.4121 8.83789 10.5488 9.22461 10.8223 9.51758C11.0957 9.80664 11.4844 9.95117 11.9883 9.95117ZM18.5215 9.63477C18.7441 9.81445 19.0117 9.9043 19.3242 9.9043C19.6367 9.9043 19.9023 9.81445 20.1211 9.63477C20.3438 9.45508 20.5117 9.20703 20.625 8.89062C20.7422 8.57031 20.8262 8.23047 20.877 7.87109C20.9277 7.50781 20.9531 7.10547 20.9531 6.66406C20.9531 4.54688 20.4102 3.48828 19.3242 3.48828C18.2461 3.48828 17.6992 4.53906 17.6836 6.64062C17.6836 7.08594 17.709 7.49023 17.7598 7.85352C17.8105 8.2168 17.8945 8.56055 18.0117 8.88477C18.1289 9.20508 18.2988 9.45508 18.5215 9.63477ZM20.5723 10.8887C20.2051 11.0449 19.7891 11.123 19.3242 11.123C18.8594 11.123 18.4414 11.0449 18.0703 10.8887C17.6992 10.7285 17.3926 10.5137 17.1504 10.2441C16.9082 9.9707 16.7051 9.64453 16.541 9.26562C16.3809 8.88672 16.2656 8.48633 16.1953 8.06445C16.1289 7.64258 16.0957 7.19141 16.0957 6.71094C16.0957 6.22266 16.1309 5.76562 16.2012 5.33984C16.2715 4.91016 16.3887 4.50586 16.5527 4.12695C16.7168 3.74414 16.9199 3.41797 17.1621 3.14844C17.4082 2.87891 17.7148 2.66602 18.082 2.50977C18.4492 2.34961 18.8633 2.26953 19.3242 2.26953C19.7852 2.26953 20.1992 2.34961 20.5664 2.50977C20.9336 2.66602 21.2383 2.88086 21.4805 3.1543C21.7227 3.42383 21.9238 3.75 22.084 4.13281C22.248 4.51172 22.3652 4.91406 22.4355 5.33984C22.5059 5.76562 22.541 6.22266 22.541 6.71094C22.541 7.19141 22.5059 7.64258 22.4355 8.06445C22.3691 8.48633 22.2559 8.88867 22.0957 9.27148C21.9355 9.65039 21.7344 9.97461 21.4922 10.2441C21.25 10.5137 20.9434 10.7285 20.5723 10.8887ZM25.998 10.1445V7.75391H23.6016V6.63477H26.0039V4.24414H27.1641V6.63477H29.5488V7.75391H27.1582V10.1445H25.998ZM35.7891 11V3.6875H33.2871V2.41602H39.873V3.6875H37.3828V11H35.7891ZM40.7402 11V4.56055H42.0293L42.2285 5.54492C42.6504 4.86914 43.2617 4.53125 44.0625 4.53125C44.2305 4.53125 44.3672 4.53906 44.4727 4.55469L44.4492 5.83789C44.293 5.81445 44.1309 5.80273 43.9629 5.80273C43.3965 5.80273 42.9727 5.95312 42.6914 6.25391C42.4141 6.55469 42.2754 6.97266 42.2754 7.50781V11H40.7402ZM50.0566 10.4961C49.5449 10.9141 48.8711 11.123 48.0352 11.123C47.1992 11.123 46.5254 10.9141 46.0137 10.4961C45.5059 10.0781 45.252 9.46484 45.252 8.65625V4.56055H46.793V8.59766C46.793 9.07812 46.8926 9.42578 47.0918 9.64062C47.2949 9.85547 47.6152 9.96289 48.0527 9.96289C48.4824 9.96289 48.7949 9.85742 48.9902 9.64648C49.1895 9.43164 49.2891 9.08203 49.2891 8.59766V4.56055H50.8242V8.65625C50.8242 9.46094 50.5684 10.0742 50.0566 10.4961ZM54.2871 11.1172C53.3379 11.1172 52.5781 10.9551 52.0078 10.6309L52.166 9.47656C52.4238 9.61719 52.752 9.74414 53.1504 9.85742C53.5488 9.9668 53.9121 10.0215 54.2402 10.0215C54.5801 10.0215 54.8438 9.95898 55.0312 9.83398C55.2227 9.70508 55.3203 9.51758 55.3242 9.27148C55.3242 9.04883 55.2344 8.87305 55.0547 8.74414C54.8789 8.61523 54.541 8.45508 54.041 8.26367C53.8691 8.20117 53.7578 8.16016 53.707 8.14062C53.1133 7.91016 52.6855 7.6543 52.4238 7.37305C52.1621 7.08789 52.0312 6.70312 52.0312 6.21875C52.0312 5.63281 52.2422 5.18359 52.6641 4.87109C53.0898 4.55859 53.6816 4.40234 54.4395 4.40234C55.2598 4.40234 55.9805 4.55664 56.6016 4.86523L56.2207 5.92578C55.6074 5.64062 55.0234 5.49805 54.4688 5.49805C54.1602 5.49805 53.918 5.55078 53.7422 5.65625C53.5703 5.75781 53.4844 5.91406 53.4844 6.125C53.4844 6.32422 53.5684 6.48047 53.7363 6.59375C53.9043 6.70312 54.2324 6.84766 54.7207 7.02734C54.7363 7.03125 54.7871 7.04883 54.873 7.08008C54.959 7.11133 55.0254 7.13672 55.0723 7.15625C55.6621 7.37109 56.0957 7.62891 56.373 7.92969C56.6504 8.22656 56.7891 8.61523 56.7891 9.0957C56.7852 9.74023 56.5664 10.2383 56.1328 10.5898C55.6992 10.9414 55.084 11.1172 54.2871 11.1172ZM60.5801 11.0879C60.1426 11.0879 59.7773 11.0371 59.4844 10.9355C59.1953 10.8301 58.9688 10.666 58.8047 10.4434C58.6406 10.2207 58.5234 9.95898 58.4531 9.6582C58.3867 9.35352 58.3535 8.97852 58.3535 8.5332V5.49219H57.2988L57.3574 4.66016L58.459 4.56055L58.9512 2.81445L59.8887 2.80859V4.56055H61.4883V5.49219H59.8887V8.5625C59.8887 9.05078 59.959 9.39844 60.0996 9.60547C60.2402 9.8125 60.5 9.91602 60.8789 9.91602C61.1016 9.91602 61.3398 9.89648 61.5938 9.85742L61.6348 10.959C61.627 10.959 61.5781 10.9688 61.4883 10.9883C61.4023 11.0039 61.3184 11.0176 61.2363 11.0293C61.1582 11.0449 61.0566 11.0586 60.9316 11.0703C60.8066 11.082 60.6895 11.0879 60.5801 11.0879ZM65.6367 11.123C64.6016 11.123 63.7949 10.8262 63.2168 10.2324C62.6426 9.63477 62.3555 8.81055 62.3555 7.75977C62.3555 6.73633 62.627 5.92188 63.1699 5.31641C63.7129 4.71094 64.4531 4.40625 65.3906 4.40234C66.2773 4.40234 66.9648 4.67969 67.4531 5.23438C67.9453 5.78906 68.1914 6.52539 68.1914 7.44336C68.1914 7.50977 68.1895 7.61719 68.1855 7.76562C68.1855 7.91406 68.1855 8.02344 68.1855 8.09375H63.9023C63.918 8.69531 64.082 9.16211 64.3945 9.49414C64.7109 9.82227 65.1445 9.98633 65.6953 9.98633C66.3984 9.98633 67.0742 9.80273 67.7227 9.43555L67.9395 10.5254C67.2949 10.9238 66.5273 11.123 65.6367 11.123ZM63.9316 7.12695H66.7441C66.7441 6.60352 66.625 6.20117 66.3867 5.91992C66.1484 5.63867 65.8184 5.49805 65.3965 5.49805C65.002 5.49805 64.668 5.63477 64.3945 5.9082C64.125 6.18164 63.9707 6.58789 63.9316 7.12695ZM71.8418 11.123C71.002 11.123 70.3418 10.8145 69.8613 10.1973C69.3809 9.58008 69.1406 8.75586 69.1406 7.72461C69.1406 6.72461 69.3789 5.92188 69.8555 5.31641C70.3359 4.70703 70.9961 4.40234 71.8359 4.40234C72.75 4.40234 73.3965 4.72656 73.7754 5.375C73.7363 4.99219 73.7168 4.62305 73.7168 4.26758V2.1875L75.252 2.08789V11H73.9219L73.752 10.1211C73.6855 10.2266 73.623 10.3184 73.5645 10.3965C73.5098 10.4707 73.4277 10.5586 73.3184 10.6602C73.209 10.7578 73.0898 10.8379 72.9609 10.9004C72.8359 10.959 72.6758 11.0098 72.4805 11.0527C72.2891 11.0996 72.0762 11.123 71.8418 11.123ZM72.2051 9.95703C73.2363 9.95703 73.7598 9.25586 73.7754 7.85352C73.7754 7.06055 73.6426 6.48242 73.377 6.11914C73.1113 5.75586 72.7148 5.57422 72.1875 5.57422C71.7266 5.57422 71.3574 5.75977 71.0801 6.13086C70.8066 6.49805 70.6699 7.04102 70.6699 7.75977C70.6699 8.47461 70.8066 9.01953 71.0801 9.39453C71.3574 9.76953 71.7324 9.95703 72.2051 9.95703ZM83.4551 11.123C83.0176 11.123 82.6191 11.0273 82.2598 10.8359C81.9043 10.6406 81.6465 10.4199 81.4863 10.1738L81.334 10.9941H80.0039V2.1875L81.5391 2.08789V4.08008C81.5391 4.4668 81.5273 4.90625 81.5039 5.39844C82.0117 4.73438 82.6738 4.40234 83.4902 4.40234C84.3105 4.40234 84.9531 4.70703 85.418 5.31641C85.8867 5.92578 86.1211 6.72266 86.1211 7.70703C86.1211 8.73047 85.8789 9.55664 85.3945 10.1855C84.9141 10.8105 84.2676 11.123 83.4551 11.123ZM83.0859 9.95703C83.543 9.95703 83.9082 9.76367 84.1816 9.37695C84.4551 8.99023 84.5918 8.44141 84.5918 7.73047C84.5918 7.01562 84.457 6.47461 84.1875 6.10742C83.9219 5.74023 83.5605 5.55664 83.1035 5.55664C82.0645 5.55664 81.5391 6.25781 81.5273 7.66016C81.5273 8.44922 81.6582 9.0293 81.9199 9.40039C82.1816 9.77148 82.5703 9.95703 83.0859 9.95703ZM87.6797 13.7129C87.4297 13.7129 87.1641 13.6973 86.8828 13.666L86.8066 12.4766C86.9863 12.4961 87.2148 12.5059 87.4922 12.5059C87.8477 12.5059 88.1328 12.4355 88.3477 12.2949C88.5625 12.1543 88.7402 11.9043 88.8809 11.5449C88.8965 11.5059 88.9746 11.2852 89.1152 10.8828L86.5254 4.56055H88.166L89.8594 9.23047C89.9844 8.76562 90.2637 7.90234 90.6973 6.64062C91.1348 5.37891 91.375 4.68555 91.418 4.56055H93.0586C91.2734 9.2793 90.373 11.6582 90.3574 11.6973C90.0801 12.4199 89.7305 12.9355 89.3086 13.2441C88.8867 13.5566 88.3438 13.7129 87.6797 13.7129ZM101.033 11.123C99.7246 11.123 98.7012 10.7285 97.9629 9.93945C97.2285 9.15039 96.8613 8.07031 96.8613 6.69922C96.8613 5.82812 97.0332 5.0625 97.377 4.40234C97.7207 3.73828 98.2266 3.2207 98.8945 2.84961C99.5625 2.47852 100.352 2.29297 101.262 2.29297C102.305 2.29297 103.199 2.51758 103.945 2.9668L103.43 4.15039C102.719 3.76758 102.006 3.57617 101.291 3.57617C100.424 3.57617 99.7422 3.85742 99.2461 4.41992C98.75 4.98242 98.502 5.74805 98.502 6.7168C98.502 7.67773 98.7227 8.4375 99.1641 8.99609C99.6055 9.55469 100.252 9.83398 101.104 9.83398C101.65 9.83398 102.146 9.74805 102.592 9.57617V7.58398H100.793L100.805 6.33594H104.086V10.4785C103.555 10.6973 103.051 10.8594 102.574 10.9648C102.102 11.0703 101.588 11.123 101.033 11.123ZM108.451 9.95703C108.971 9.95703 109.361 9.76758 109.623 9.38867C109.885 9.00977 110.016 8.4668 110.016 7.75977C110.016 7.04492 109.885 6.5 109.623 6.125C109.361 5.75 108.967 5.5625 108.439 5.5625C107.92 5.5625 107.527 5.75195 107.262 6.13086C107 6.50586 106.869 7.05078 106.869 7.76562C106.869 8.46875 107.002 9.00977 107.268 9.38867C107.533 9.76758 107.928 9.95703 108.451 9.95703ZM108.41 11.123C107.457 11.123 106.707 10.8145 106.16 10.1973C105.613 9.58008 105.34 8.76758 105.34 7.75977C105.34 6.7207 105.613 5.90234 106.16 5.30469C106.707 4.70312 107.479 4.40234 108.475 4.40234C109.436 4.40234 110.188 4.70898 110.73 5.32227C111.277 5.93164 111.551 6.74414 111.551 7.75977C111.551 8.78711 111.275 9.60547 110.725 10.2148C110.174 10.8203 109.402 11.123 108.41 11.123ZM114.516 11L111.949 4.56055H113.578C113.641 4.73633 113.838 5.2832 114.17 6.20117C114.506 7.11523 114.729 7.73828 114.838 8.07031C115.061 8.71875 115.221 9.20898 115.318 9.54102C115.318 9.53711 115.352 9.41016 115.418 9.16016C115.484 8.91016 115.547 8.67578 115.605 8.45703C115.668 8.23438 115.707 8.09961 115.723 8.05273C115.727 8.04492 115.904 7.50586 116.256 6.43555C116.611 5.36523 116.822 4.74023 116.889 4.56055H118.506L116.068 11H114.516ZM122.238 11.123C121.203 11.123 120.396 10.8262 119.818 10.2324C119.244 9.63477 118.957 8.81055 118.957 7.75977C118.957 6.73633 119.229 5.92188 119.771 5.31641C120.314 4.71094 121.055 4.40625 121.992 4.40234C122.879 4.40234 123.566 4.67969 124.055 5.23438C124.547 5.78906 124.793 6.52539 124.793 7.44336C124.793 7.50977 124.791 7.61719 124.787 7.76562C124.787 7.91406 124.787 8.02344 124.787 8.09375H120.504C120.52 8.69531 120.684 9.16211 120.996 9.49414C121.312 9.82227 121.746 9.98633 122.297 9.98633C123 9.98633 123.676 9.80273 124.324 9.43555L124.541 10.5254C123.896 10.9238 123.129 11.123 122.238 11.123ZM120.533 7.12695H123.346C123.346 6.60352 123.227 6.20117 122.988 5.91992C122.75 5.63867 122.42 5.49805 121.998 5.49805C121.604 5.49805 121.27 5.63477 120.996 5.9082C120.727 6.18164 120.572 6.58789 120.533 7.12695ZM126.053 11V4.56055H127.342L127.541 5.54492C127.963 4.86914 128.574 4.53125 129.375 4.53125C129.543 4.53125 129.68 4.53906 129.785 4.55469L129.762 5.83789C129.605 5.81445 129.443 5.80273 129.275 5.80273C128.709 5.80273 128.285 5.95312 128.004 6.25391C127.727 6.55469 127.588 6.97266 127.588 7.50781V11H126.053ZM130.723 11V4.56055H131.959L132.129 5.375C132.785 4.72656 133.514 4.40234 134.314 4.40234C135.064 4.40234 135.625 4.61914 135.996 5.05273C136.371 5.48242 136.559 6.10742 136.559 6.92773V11H135.018V7.11523C135.014 6.5957 134.93 6.20703 134.766 5.94922C134.602 5.69141 134.307 5.5625 133.881 5.5625C133.549 5.5625 133.244 5.64844 132.967 5.82031C132.693 5.98828 132.494 6.20117 132.369 6.45898C132.295 6.76367 132.258 7.23242 132.258 7.86523V11H130.723ZM138.07 11V4.56055H139.312L139.488 5.38086C139.566 5.2832 139.641 5.19727 139.711 5.12305C139.785 5.04492 139.885 4.95898 140.01 4.86523C140.139 4.76758 140.273 4.6875 140.414 4.625C140.559 4.5625 140.734 4.50977 140.941 4.4668C141.152 4.42383 141.377 4.40234 141.615 4.40234C142.127 4.40234 142.535 4.50586 142.84 4.71289C143.148 4.91992 143.365 5.16211 143.49 5.43945C143.721 5.10742 144.02 4.85156 144.387 4.67188C144.754 4.49219 145.162 4.40234 145.611 4.40234C146.35 4.40234 146.891 4.61133 147.234 5.0293C147.582 5.44727 147.756 6.06641 147.756 6.88672V11H146.215V7.34375C146.215 6.71484 146.145 6.26172 146.004 5.98438C145.867 5.70312 145.604 5.5625 145.213 5.5625C144.615 5.5625 144.186 5.83203 143.924 6.37109C143.814 6.60938 143.74 6.89648 143.701 7.23242V11H142.166V7.27344C142.166 6.69922 142.09 6.27148 141.938 5.99023C141.785 5.70898 141.51 5.56836 141.111 5.56836C140.787 5.56836 140.508 5.65039 140.273 5.81445C140.039 5.97852 139.861 6.19336 139.74 6.45898C139.65 6.85352 139.605 7.32617 139.605 7.87695V11H138.07ZM152.25 11.123C151.215 11.123 150.408 10.8262 149.83 10.2324C149.256 9.63477 148.969 8.81055 148.969 7.75977C148.969 6.73633 149.24 5.92188 149.783 5.31641C150.326 4.71094 151.066 4.40625 152.004 4.40234C152.891 4.40234 153.578 4.67969 154.066 5.23438C154.559 5.78906 154.805 6.52539 154.805 7.44336C154.805 7.50977 154.803 7.61719 154.799 7.76562C154.799 7.91406 154.799 8.02344 154.799 8.09375H150.516C150.531 8.69531 150.695 9.16211 151.008 9.49414C151.324 9.82227 151.758 9.98633 152.309 9.98633C153.012 9.98633 153.688 9.80273 154.336 9.43555L154.553 10.5254C153.908 10.9238 153.141 11.123 152.25 11.123ZM150.545 7.12695H153.357C153.357 6.60352 153.238 6.20117 153 5.91992C152.762 5.63867 152.432 5.49805 152.01 5.49805C151.615 5.49805 151.281 5.63477 151.008 5.9082C150.738 6.18164 150.584 6.58789 150.545 7.12695ZM156.059 11V4.56055H157.295L157.465 5.375C158.121 4.72656 158.85 4.40234 159.65 4.40234C160.4 4.40234 160.961 4.61914 161.332 5.05273C161.707 5.48242 161.895 6.10742 161.895 6.92773V11H160.354V7.11523C160.35 6.5957 160.266 6.20703 160.102 5.94922C159.938 5.69141 159.643 5.5625 159.217 5.5625C158.885 5.5625 158.58 5.64844 158.303 5.82031C158.029 5.98828 157.83 6.20117 157.705 6.45898C157.631 6.76367 157.594 7.23242 157.594 7.86523V11H156.059ZM165.979 11.0879C165.541 11.0879 165.176 11.0371 164.883 10.9355C164.594 10.8301 164.367 10.666 164.203 10.4434C164.039 10.2207 163.922 9.95898 163.852 9.6582C163.785 9.35352 163.752 8.97852 163.752 8.5332V5.49219H162.697L162.756 4.66016L163.857 4.56055L164.35 2.81445L165.287 2.80859V4.56055H166.887V5.49219H165.287V8.5625C165.287 9.05078 165.357 9.39844 165.498 9.60547C165.639 9.8125 165.898 9.91602 166.277 9.91602C166.5 9.91602 166.738 9.89648 166.992 9.85742L167.033 10.959C167.025 10.959 166.977 10.9688 166.887 10.9883C166.801 11.0039 166.717 11.0176 166.635 11.0293C166.557 11.0449 166.455 11.0586 166.33 11.0703C166.205 11.082 166.088 11.0879 165.979 11.0879ZM171.439 11V2.41602H176.643L176.578 3.67578H173.027V5.89062H176.402V7.15039H173.027V9.73438H176.707L176.654 11H171.439ZM178.043 11V4.56055H179.279L179.449 5.375C180.105 4.72656 180.834 4.40234 181.635 4.40234C182.385 4.40234 182.945 4.61914 183.316 5.05273C183.691 5.48242 183.879 6.10742 183.879 6.92773V11H182.338V7.11523C182.334 6.5957 182.25 6.20703 182.086 5.94922C181.922 5.69141 181.627 5.5625 181.201 5.5625C180.869 5.5625 180.564 5.64844 180.287 5.82031C180.014 5.98828 179.814 6.20117 179.689 6.45898C179.615 6.76367 179.578 7.23242 179.578 7.86523V11H178.043ZM187.963 11.0879C187.525 11.0879 187.16 11.0371 186.867 10.9355C186.578 10.8301 186.352 10.666 186.188 10.4434C186.023 10.2207 185.906 9.95898 185.836 9.6582C185.77 9.35352 185.736 8.97852 185.736 8.5332V5.49219H184.682L184.74 4.66016L185.842 4.56055L186.334 2.81445L187.271 2.80859V4.56055H188.871V5.49219H187.271V8.5625C187.271 9.05078 187.342 9.39844 187.482 9.60547C187.623 9.8125 187.883 9.91602 188.262 9.91602C188.484 9.91602 188.723 9.89648 188.977 9.85742L189.018 10.959C189.01 10.959 188.961 10.9688 188.871 10.9883C188.785 11.0039 188.701 11.0176 188.619 11.0293C188.541 11.0449 188.439 11.0586 188.314 11.0703C188.189 11.082 188.072 11.0879 187.963 11.0879ZM190.137 11V4.56055H191.672V11H190.137ZM190.137 3.62305V2.31055H191.678V3.62305H190.137ZM195.85 11.0879C195.412 11.0879 195.047 11.0371 194.754 10.9355C194.465 10.8301 194.238 10.666 194.074 10.4434C193.91 10.2207 193.793 9.95898 193.723 9.6582C193.656 9.35352 193.623 8.97852 193.623 8.5332V5.49219H192.568L192.627 4.66016L193.729 4.56055L194.221 2.81445L195.158 2.80859V4.56055H196.758V5.49219H195.158V8.5625C195.158 9.05078 195.229 9.39844 195.369 9.60547C195.51 9.8125 195.77 9.91602 196.148 9.91602C196.371 9.91602 196.609 9.89648 196.863 9.85742L196.904 10.959C196.896 10.959 196.848 10.9688 196.758 10.9883C196.672 11.0039 196.588 11.0176 196.506 11.0293C196.428 11.0449 196.326 11.0586 196.201 11.0703C196.076 11.082 195.959 11.0879 195.85 11.0879ZM198.023 11V4.56055H199.559V11H198.023ZM198.023 3.62305V2.31055H199.564V3.62305H198.023ZM204.141 11.123C203.105 11.123 202.299 10.8262 201.721 10.2324C201.146 9.63477 200.859 8.81055 200.859 7.75977C200.859 6.73633 201.131 5.92188 201.674 5.31641C202.217 4.71094 202.957 4.40625 203.895 4.40234C204.781 4.40234 205.469 4.67969 205.957 5.23438C206.449 5.78906 206.695 6.52539 206.695 7.44336C206.695 7.50977 206.693 7.61719 206.689 7.76562C206.689 7.91406 206.689 8.02344 206.689 8.09375H202.406C202.422 8.69531 202.586 9.16211 202.898 9.49414C203.215 9.82227 203.648 9.98633 204.199 9.98633C204.902 9.98633 205.578 9.80273 206.227 9.43555L206.443 10.5254C205.799 10.9238 205.031 11.123 204.141 11.123ZM202.436 7.12695H205.248C205.248 6.60352 205.129 6.20117 204.891 5.91992C204.652 5.63867 204.322 5.49805 203.9 5.49805C203.506 5.49805 203.172 5.63477 202.898 5.9082C202.629 6.18164 202.475 6.58789 202.436 7.12695ZM210.006 11.1172C209.057 11.1172 208.297 10.9551 207.727 10.6309L207.885 9.47656C208.143 9.61719 208.471 9.74414 208.869 9.85742C209.268 9.9668 209.631 10.0215 209.959 10.0215C210.299 10.0215 210.562 9.95898 210.75 9.83398C210.941 9.70508 211.039 9.51758 211.043 9.27148C211.043 9.04883 210.953 8.87305 210.773 8.74414C210.598 8.61523 210.26 8.45508 209.76 8.26367C209.588 8.20117 209.477 8.16016 209.426 8.14062C208.832 7.91016 208.404 7.6543 208.143 7.37305C207.881 7.08789 207.75 6.70312 207.75 6.21875C207.75 5.63281 207.961 5.18359 208.383 4.87109C208.809 4.55859 209.4 4.40234 210.158 4.40234C210.979 4.40234 211.699 4.55664 212.32 4.86523L211.939 5.92578C211.326 5.64062 210.742 5.49805 210.188 5.49805C209.879 5.49805 209.637 5.55078 209.461 5.65625C209.289 5.75781 209.203 5.91406 209.203 6.125C209.203 6.32422 209.287 6.48047 209.455 6.59375C209.623 6.70312 209.951 6.84766 210.439 7.02734C210.455 7.03125 210.506 7.04883 210.592 7.08008C210.678 7.11133 210.744 7.13672 210.791 7.15625C211.381 7.37109 211.814 7.62891 212.092 7.92969C212.369 8.22656 212.508 8.61523 212.508 9.0957C212.504 9.74023 212.285 10.2383 211.852 10.5898C211.418 10.9414 210.803 11.1172 210.006 11.1172ZM218.602 11.123C218.004 11.123 217.52 10.959 217.148 10.6309C216.781 10.2988 216.598 9.82227 216.598 9.20117C216.598 8.5332 216.816 8.03906 217.254 7.71875C217.691 7.39453 218.352 7.18945 219.234 7.10352C219.355 7.08789 219.486 7.07227 219.627 7.05664C219.768 7.04102 219.926 7.02539 220.102 7.00977C220.277 6.99414 220.416 6.98047 220.518 6.96875V6.62891C220.518 6.23828 220.428 5.95508 220.248 5.7793C220.068 5.59961 219.795 5.50977 219.428 5.50977C218.904 5.50977 218.258 5.65625 217.488 5.94922C217.484 5.9375 217.42 5.75977 217.295 5.41602C217.17 5.07227 217.105 4.89648 217.102 4.88867C217.859 4.56445 218.68 4.40234 219.562 4.40234C220.43 4.40234 221.061 4.5918 221.455 4.9707C221.85 5.3457 222.047 5.95508 222.047 6.79883V11H220.91C220.906 10.9844 220.863 10.8535 220.781 10.6074C220.699 10.3613 220.658 10.2305 220.658 10.2148C220.338 10.5273 220.023 10.7578 219.715 10.9062C219.41 11.0508 219.039 11.123 218.602 11.123ZM219.018 10.0332C219.373 10.0332 219.682 9.94922 219.943 9.78125C220.209 9.60938 220.398 9.40234 220.512 9.16016V7.91797C220.5 7.91797 220.396 7.92578 220.201 7.94141C220.01 7.95703 219.906 7.96484 219.891 7.96484C219.27 8.01953 218.814 8.13672 218.525 8.31641C218.236 8.49609 218.092 8.78516 218.092 9.18359C218.092 9.45703 218.172 9.66797 218.332 9.81641C218.492 9.96094 218.721 10.0332 219.018 10.0332ZM223.594 11V4.56055H224.83L225 5.375C225.656 4.72656 226.385 4.40234 227.186 4.40234C227.936 4.40234 228.496 4.61914 228.867 5.05273C229.242 5.48242 229.43 6.10742 229.43 6.92773V11H227.889V7.11523C227.885 6.5957 227.801 6.20703 227.637 5.94922C227.473 5.69141 227.178 5.5625 226.752 5.5625C226.42 5.5625 226.115 5.64844 225.838 5.82031C225.564 5.98828 225.365 6.20117 225.24 6.45898C225.166 6.76367 225.129 7.23242 225.129 7.86523V11H223.594ZM233.338 11.123C232.498 11.123 231.838 10.8145 231.357 10.1973C230.877 9.58008 230.637 8.75586 230.637 7.72461C230.637 6.72461 230.875 5.92188 231.352 5.31641C231.832 4.70703 232.492 4.40234 233.332 4.40234C234.246 4.40234 234.893 4.72656 235.271 5.375C235.232 4.99219 235.213 4.62305 235.213 4.26758V2.1875L236.748 2.08789V11H235.418L235.248 10.1211C235.182 10.2266 235.119 10.3184 235.061 10.3965C235.006 10.4707 234.924 10.5586 234.814 10.6602C234.705 10.7578 234.586 10.8379 234.457 10.9004C234.332 10.959 234.172 11.0098 233.977 11.0527C233.785 11.0996 233.572 11.123 233.338 11.123ZM233.701 9.95703C234.732 9.95703 235.256 9.25586 235.271 7.85352C235.271 7.06055 235.139 6.48242 234.873 6.11914C234.607 5.75586 234.211 5.57422 233.684 5.57422C233.223 5.57422 232.854 5.75977 232.576 6.13086C232.303 6.49805 232.166 7.04102 232.166 7.75977C232.166 8.47461 232.303 9.01953 232.576 9.39453C232.854 9.76953 233.229 9.95703 233.701 9.95703ZM244.055 11.1172C243.02 11.1172 242.092 10.8789 241.271 10.4023L241.658 9.14258C242.025 9.3457 242.424 9.50977 242.854 9.63477C243.287 9.75977 243.709 9.82227 244.119 9.82227C244.623 9.82227 245.004 9.71484 245.262 9.5C245.52 9.28125 245.648 8.96875 245.648 8.5625C245.648 8.02344 245.289 7.65039 244.57 7.44336C244.52 7.42773 244.377 7.38672 244.143 7.32031C243.908 7.25 243.688 7.18359 243.48 7.12109C243.277 7.05469 243.131 7.00391 243.041 6.96875C241.889 6.5625 241.312 5.80469 241.312 4.69531C241.312 3.91797 241.588 3.31836 242.139 2.89648C242.693 2.47461 243.428 2.26367 244.342 2.26367C245.377 2.26367 246.27 2.47656 247.02 2.90234L246.539 4.0625C245.773 3.71875 245.062 3.54688 244.406 3.54688C243.934 3.54688 243.576 3.63086 243.334 3.79883C243.096 3.96289 242.969 4.23828 242.953 4.625C242.953 5.10156 243.189 5.41211 243.662 5.55664C243.756 5.5918 243.986 5.66797 244.354 5.78516C244.721 5.90234 244.959 5.97852 245.068 6.01367C245.854 6.27148 246.414 6.5918 246.75 6.97461C247.09 7.35742 247.26 7.89062 247.26 8.57422C247.26 9.39062 246.971 10.0195 246.393 10.4609C245.814 10.8984 245.035 11.1172 244.055 11.1172ZM251.045 11.0879C250.607 11.0879 250.242 11.0371 249.949 10.9355C249.66 10.8301 249.434 10.666 249.27 10.4434C249.105 10.2207 248.988 9.95898 248.918 9.6582C248.852 9.35352 248.818 8.97852 248.818 8.5332V5.49219H247.764L247.822 4.66016L248.924 4.56055L249.416 2.81445L250.354 2.80859V4.56055H251.953V5.49219H250.354V8.5625C250.354 9.05078 250.424 9.39844 250.564 9.60547C250.705 9.8125 250.965 9.91602 251.344 9.91602C251.566 9.91602 251.805 9.89648 252.059 9.85742L252.1 10.959C252.092 10.959 252.043 10.9688 251.953 10.9883C251.867 11.0039 251.783 11.0176 251.701 11.0293C251.623 11.0449 251.521 11.0586 251.396 11.0703C251.271 11.082 251.154 11.0879 251.045 11.0879ZM256.102 11.123C255.066 11.123 254.26 10.8262 253.682 10.2324C253.107 9.63477 252.82 8.81055 252.82 7.75977C252.82 6.73633 253.092 5.92188 253.635 5.31641C254.178 4.71094 254.918 4.40625 255.855 4.40234C256.742 4.40234 257.43 4.67969 257.918 5.23438C258.41 5.78906 258.656 6.52539 258.656 7.44336C258.656 7.50977 258.654 7.61719 258.65 7.76562C258.65 7.91406 258.65 8.02344 258.65 8.09375H254.367C254.383 8.69531 254.547 9.16211 254.859 9.49414C255.176 9.82227 255.609 9.98633 256.16 9.98633C256.863 9.98633 257.539 9.80273 258.188 9.43555L258.404 10.5254C257.76 10.9238 256.992 11.123 256.102 11.123ZM254.396 7.12695H257.209C257.209 6.60352 257.09 6.20117 256.852 5.91992C256.613 5.63867 256.283 5.49805 255.861 5.49805C255.467 5.49805 255.133 5.63477 254.859 5.9082C254.59 6.18164 254.436 6.58789 254.396 7.12695ZM262.887 11.123C261.852 11.123 261.045 10.8262 260.467 10.2324C259.893 9.63477 259.605 8.81055 259.605 7.75977C259.605 6.73633 259.877 5.92188 260.42 5.31641C260.963 4.71094 261.703 4.40625 262.641 4.40234C263.527 4.40234 264.215 4.67969 264.703 5.23438C265.195 5.78906 265.441 6.52539 265.441 7.44336C265.441 7.50977 265.439 7.61719 265.436 7.76562C265.436 7.91406 265.436 8.02344 265.436 8.09375H261.152C261.168 8.69531 261.332 9.16211 261.645 9.49414C261.961 9.82227 262.395 9.98633 262.945 9.98633C263.648 9.98633 264.324 9.80273 264.973 9.43555L265.189 10.5254C264.545 10.9238 263.777 11.123 262.887 11.123ZM261.182 7.12695H263.994C263.994 6.60352 263.875 6.20117 263.637 5.91992C263.398 5.63867 263.068 5.49805 262.646 5.49805C262.252 5.49805 261.918 5.63477 261.645 5.9082C261.375 6.18164 261.221 6.58789 261.182 7.12695ZM266.701 11V4.56055H267.99L268.189 5.54492C268.611 4.86914 269.223 4.53125 270.023 4.53125C270.191 4.53125 270.328 4.53906 270.434 4.55469L270.41 5.83789C270.254 5.81445 270.092 5.80273 269.924 5.80273C269.357 5.80273 268.934 5.95312 268.652 6.25391C268.375 6.55469 268.236 6.97266 268.236 7.50781V11H266.701ZM271.406 11V4.56055H272.941V11H271.406ZM271.406 3.62305V2.31055H272.947V3.62305H271.406ZM274.547 11V4.56055H275.783L275.953 5.375C276.609 4.72656 277.338 4.40234 278.139 4.40234C278.889 4.40234 279.449 4.61914 279.82 5.05273C280.195 5.48242 280.383 6.10742 280.383 6.92773V11H278.842V7.11523C278.838 6.5957 278.754 6.20703 278.59 5.94922C278.426 5.69141 278.131 5.5625 277.705 5.5625C277.373 5.5625 277.068 5.64844 276.791 5.82031C276.518 5.98828 276.318 6.20117 276.193 6.45898C276.119 6.76367 276.082 7.23242 276.082 7.86523V11H274.547ZM283.184 13.8828L283.096 12.6406H283.875C284.777 12.6406 285.408 12.5195 285.768 12.2773C286.127 12.0391 286.307 11.5996 286.307 10.959C286.307 10.6973 286.295 10.4141 286.271 10.1094C286.17 10.25 286.072 10.3672 285.979 10.4609C285.889 10.5508 285.773 10.6406 285.633 10.7305C285.496 10.8203 285.33 10.8887 285.135 10.9355C284.943 10.9785 284.725 11 284.479 11C283.627 11 282.926 10.6934 282.375 10.0801C281.828 9.4668 281.555 8.67578 281.555 7.70703C281.555 7.19141 281.631 6.72266 281.783 6.30078C281.936 5.875 282.143 5.52539 282.404 5.25195C282.666 4.97852 282.967 4.76953 283.307 4.625C283.65 4.47656 284.016 4.40234 284.402 4.40234C285.266 4.40234 285.908 4.7168 286.33 5.3457L286.436 4.56055H287.807V10.543C287.807 10.8633 287.791 11.1504 287.76 11.4043C287.729 11.6621 287.674 11.9082 287.596 12.1426C287.518 12.3809 287.414 12.5879 287.285 12.7637C287.16 12.9395 287.002 13.0996 286.811 13.2441C286.619 13.3887 286.393 13.5059 286.131 13.5957C285.873 13.6895 285.572 13.7598 285.229 13.8066C284.885 13.8574 284.498 13.8828 284.068 13.8828H283.184ZM284.725 9.92773C285.783 9.92773 286.318 9.21875 286.33 7.80078V7.57812C286.322 6.94141 286.189 6.44922 285.932 6.10156C285.674 5.75391 285.297 5.57812 284.801 5.57422C284.238 5.57422 283.812 5.76758 283.523 6.1543C283.234 6.53711 283.09 7.05469 283.09 7.70703C283.09 8.33594 283.234 8.86328 283.523 9.28906C283.816 9.71484 284.217 9.92773 284.725 9.92773ZM111.697 22.0137C112.123 22.5566 112.752 22.8281 113.584 22.8281C114.416 22.8281 115.043 22.5586 115.465 22.0195C115.891 21.4766 116.104 20.7109 116.104 19.7227C116.104 18.7227 115.891 17.9473 115.465 17.3965C115.043 16.8457 114.418 16.5703 113.59 16.5703C112.758 16.5703 112.127 16.8477 111.697 17.4023C111.271 17.9531 111.059 18.7266 111.059 19.7227C111.059 20.707 111.271 21.4707 111.697 22.0137ZM113.578 24.123C112.285 24.123 111.264 23.7324 110.514 22.9512C109.768 22.166 109.395 21.084 109.395 19.7051C109.395 18.3184 109.77 17.2363 110.52 16.459C111.27 15.6816 112.291 15.293 113.584 15.293C114.877 15.293 115.896 15.6836 116.643 16.4648C117.389 17.2422 117.762 18.3242 117.762 19.7109C117.762 21.082 117.387 22.1602 116.637 22.9453C115.887 23.7305 114.867 24.123 113.578 24.123ZM119.127 24V17.5605H120.416L120.615 18.5449C121.037 17.8691 121.648 17.5312 122.449 17.5312C122.617 17.5312 122.754 17.5391 122.859 17.5547L122.836 18.8379C122.68 18.8145 122.518 18.8027 122.35 18.8027C121.783 18.8027 121.359 18.9531 121.078 19.2539C120.801 19.5547 120.662 19.9727 120.662 20.5078V24H119.127ZM125.016 26.8828L124.928 25.6406H125.707C126.609 25.6406 127.24 25.5195 127.6 25.2773C127.959 25.0391 128.139 24.5996 128.139 23.959C128.139 23.6973 128.127 23.4141 128.104 23.1094C128.002 23.25 127.904 23.3672 127.811 23.4609C127.721 23.5508 127.605 23.6406 127.465 23.7305C127.328 23.8203 127.162 23.8887 126.967 23.9355C126.775 23.9785 126.557 24 126.311 24C125.459 24 124.758 23.6934 124.207 23.0801C123.66 22.4668 123.387 21.6758 123.387 20.707C123.387 20.1914 123.463 19.7227 123.615 19.3008C123.768 18.875 123.975 18.5254 124.236 18.252C124.498 17.9785 124.799 17.7695 125.139 17.625C125.482 17.4766 125.848 17.4023 126.234 17.4023C127.098 17.4023 127.74 17.7168 128.162 18.3457L128.268 17.5605H129.639V23.543C129.639 23.8633 129.623 24.1504 129.592 24.4043C129.561 24.6621 129.506 24.9082 129.428 25.1426C129.35 25.3809 129.246 25.5879 129.117 25.7637C128.992 25.9395 128.834 26.0996 128.643 26.2441C128.451 26.3887 128.225 26.5059 127.963 26.5957C127.705 26.6895 127.404 26.7598 127.061 26.8066C126.717 26.8574 126.33 26.8828 125.9 26.8828H125.016ZM126.557 22.9277C127.615 22.9277 128.15 22.2188 128.162 20.8008V20.5781C128.154 19.9414 128.021 19.4492 127.764 19.1016C127.506 18.7539 127.129 18.5781 126.633 18.5742C126.07 18.5742 125.645 18.7676 125.355 19.1543C125.066 19.5371 124.922 20.0547 124.922 20.707C124.922 21.3359 125.066 21.8633 125.355 22.2891C125.648 22.7148 126.049 22.9277 126.557 22.9277ZM132.855 24.123C132.258 24.123 131.773 23.959 131.402 23.6309C131.035 23.2988 130.852 22.8223 130.852 22.2012C130.852 21.5332 131.07 21.0391 131.508 20.7188C131.945 20.3945 132.605 20.1895 133.488 20.1035C133.609 20.0879 133.74 20.0723 133.881 20.0566C134.021 20.041 134.18 20.0254 134.355 20.0098C134.531 19.9941 134.67 19.9805 134.771 19.9688V19.6289C134.771 19.2383 134.682 18.9551 134.502 18.7793C134.322 18.5996 134.049 18.5098 133.682 18.5098C133.158 18.5098 132.512 18.6562 131.742 18.9492C131.738 18.9375 131.674 18.7598 131.549 18.416C131.424 18.0723 131.359 17.8965 131.355 17.8887C132.113 17.5645 132.934 17.4023 133.816 17.4023C134.684 17.4023 135.314 17.5918 135.709 17.9707C136.104 18.3457 136.301 18.9551 136.301 19.7988V24H135.164C135.16 23.9844 135.117 23.8535 135.035 23.6074C134.953 23.3613 134.912 23.2305 134.912 23.2148C134.592 23.5273 134.277 23.7578 133.969 23.9062C133.664 24.0508 133.293 24.123 132.855 24.123ZM133.271 23.0332C133.627 23.0332 133.936 22.9492 134.197 22.7812C134.463 22.6094 134.652 22.4023 134.766 22.1602V20.918C134.754 20.918 134.65 20.9258 134.455 20.9414C134.264 20.957 134.16 20.9648 134.145 20.9648C133.523 21.0195 133.068 21.1367 132.779 21.3164C132.49 21.4961 132.346 21.7852 132.346 22.1836C132.346 22.457 132.426 22.668 132.586 22.8164C132.746 22.9609 132.975 23.0332 133.271 23.0332ZM137.848 24V17.5605H139.084L139.254 18.375C139.91 17.7266 140.639 17.4023 141.439 17.4023C142.189 17.4023 142.75 17.6191 143.121 18.0527C143.496 18.4824 143.684 19.1074 143.684 19.9277V24H142.143V20.1152C142.139 19.5957 142.055 19.207 141.891 18.9492C141.727 18.6914 141.432 18.5625 141.006 18.5625C140.674 18.5625 140.369 18.6484 140.092 18.8203C139.818 18.9883 139.619 19.2012 139.494 19.459C139.42 19.7637 139.383 20.2324 139.383 20.8652V24H137.848ZM145.23 24V17.5605H146.766V24H145.23ZM145.23 16.623V15.3105H146.771V16.623H145.23ZM147.973 24V23.0684L151.16 18.627H148.125V17.5605H152.859V18.6094L149.842 22.8809H152.965V24H147.973ZM155.801 24.123C155.203 24.123 154.719 23.959 154.348 23.6309C153.98 23.2988 153.797 22.8223 153.797 22.2012C153.797 21.5332 154.016 21.0391 154.453 20.7188C154.891 20.3945 155.551 20.1895 156.434 20.1035C156.555 20.0879 156.686 20.0723 156.826 20.0566C156.967 20.041 157.125 20.0254 157.301 20.0098C157.477 19.9941 157.615 19.9805 157.717 19.9688V19.6289C157.717 19.2383 157.627 18.9551 157.447 18.7793C157.268 18.5996 156.994 18.5098 156.627 18.5098C156.104 18.5098 155.457 18.6562 154.688 18.9492C154.684 18.9375 154.619 18.7598 154.494 18.416C154.369 18.0723 154.305 17.8965 154.301 17.8887C155.059 17.5645 155.879 17.4023 156.762 17.4023C157.629 17.4023 158.26 17.5918 158.654 17.9707C159.049 18.3457 159.246 18.9551 159.246 19.7988V24H158.109C158.105 23.9844 158.062 23.8535 157.98 23.6074C157.898 23.3613 157.857 23.2305 157.857 23.2148C157.537 23.5273 157.223 23.7578 156.914 23.9062C156.609 24.0508 156.238 24.123 155.801 24.123ZM156.217 23.0332C156.572 23.0332 156.881 22.9492 157.143 22.7812C157.408 22.6094 157.598 22.4023 157.711 22.1602V20.918C157.699 20.918 157.596 20.9258 157.4 20.9414C157.209 20.957 157.105 20.9648 157.09 20.9648C156.469 21.0195 156.014 21.1367 155.725 21.3164C155.436 21.4961 155.291 21.7852 155.291 22.1836C155.291 22.457 155.371 22.668 155.531 22.8164C155.691 22.9609 155.92 23.0332 156.217 23.0332ZM163.365 24.0879C162.928 24.0879 162.562 24.0371 162.27 23.9355C161.98 23.8301 161.754 23.666 161.59 23.4434C161.426 23.2207 161.309 22.959 161.238 22.6582C161.172 22.3535 161.139 21.9785 161.139 21.5332V18.4922H160.084L160.143 17.6602L161.244 17.5605L161.736 15.8145L162.674 15.8086V17.5605H164.273V18.4922H162.674V21.5625C162.674 22.0508 162.744 22.3984 162.885 22.6055C163.025 22.8125 163.285 22.916 163.664 22.916C163.887 22.916 164.125 22.8965 164.379 22.8574L164.42 23.959C164.412 23.959 164.363 23.9688 164.273 23.9883C164.188 24.0039 164.104 24.0176 164.021 24.0293C163.943 24.0449 163.842 24.0586 163.717 24.0703C163.592 24.082 163.475 24.0879 163.365 24.0879ZM165.539 24V17.5605H167.074V24H165.539ZM165.539 16.623V15.3105H167.08V16.623H165.539ZM171.486 22.957C172.006 22.957 172.396 22.7676 172.658 22.3887C172.92 22.0098 173.051 21.4668 173.051 20.7598C173.051 20.0449 172.92 19.5 172.658 19.125C172.396 18.75 172.002 18.5625 171.475 18.5625C170.955 18.5625 170.562 18.752 170.297 19.1309C170.035 19.5059 169.904 20.0508 169.904 20.7656C169.904 21.4688 170.037 22.0098 170.303 22.3887C170.568 22.7676 170.963 22.957 171.486 22.957ZM171.445 24.123C170.492 24.123 169.742 23.8145 169.195 23.1973C168.648 22.5801 168.375 21.7676 168.375 20.7598C168.375 19.7207 168.648 18.9023 169.195 18.3047C169.742 17.7031 170.514 17.4023 171.51 17.4023C172.471 17.4023 173.223 17.709 173.766 18.3223C174.312 18.9316 174.586 19.7441 174.586 20.7598C174.586 21.7871 174.311 22.6055 173.76 23.2148C173.209 23.8203 172.438 24.123 171.445 24.123ZM175.84 24V17.5605H177.076L177.246 18.375C177.902 17.7266 178.631 17.4023 179.432 17.4023C180.182 17.4023 180.742 17.6191 181.113 18.0527C181.488 18.4824 181.676 19.1074 181.676 19.9277V24H180.135V20.1152C180.131 19.5957 180.047 19.207 179.883 18.9492C179.719 18.6914 179.424 18.5625 178.998 18.5625C178.666 18.5625 178.361 18.6484 178.084 18.8203C177.811 18.9883 177.611 19.2012 177.486 19.459C177.412 19.7637 177.375 20.2324 177.375 20.8652V24H175.84ZM185.244 24.1172C184.295 24.1172 183.535 23.9551 182.965 23.6309L183.123 22.4766C183.381 22.6172 183.709 22.7441 184.107 22.8574C184.506 22.9668 184.869 23.0215 185.197 23.0215C185.537 23.0215 185.801 22.959 185.988 22.834C186.18 22.7051 186.277 22.5176 186.281 22.2715C186.281 22.0488 186.191 21.873 186.012 21.7441C185.836 21.6152 185.498 21.4551 184.998 21.2637C184.826 21.2012 184.715 21.1602 184.664 21.1406C184.07 20.9102 183.643 20.6543 183.381 20.373C183.119 20.0879 182.988 19.7031 182.988 19.2188C182.988 18.6328 183.199 18.1836 183.621 17.8711C184.047 17.5586 184.639 17.4023 185.396 17.4023C186.217 17.4023 186.938 17.5566 187.559 17.8652L187.178 18.9258C186.564 18.6406 185.98 18.498 185.426 18.498C185.117 18.498 184.875 18.5508 184.699 18.6562C184.527 18.7578 184.441 18.9141 184.441 19.125C184.441 19.3242 184.525 19.4805 184.693 19.5938C184.861 19.7031 185.189 19.8477 185.678 20.0273C185.693 20.0312 185.744 20.0488 185.83 20.0801C185.916 20.1113 185.982 20.1367 186.029 20.1562C186.619 20.3711 187.053 20.6289 187.33 20.9297C187.607 21.2266 187.746 21.6152 187.746 22.0957C187.742 22.7402 187.523 23.2383 187.09 23.5898C186.656 23.9414 186.041 24.1172 185.244 24.1172Z" fill="#343434"/>
<path d="M22.8328 15.3597C22.9772 15.4458 23.164 15.3986 23.2501 15.2542C23.3362 15.1099 23.289 14.9231 23.1447 14.837L22.8328 15.3597ZM11.0931 14.0509C12.283 13.815 14.3112 13.5959 16.5024 13.7122C18.6976 13.8288 21.0232 14.2804 22.8328 15.3597L23.1447 14.837C21.2137 13.6852 18.775 13.2233 16.5346 13.1044C14.2902 12.9852 12.2113 13.2087 10.9748 13.4538L11.0931 14.0509Z" fill="#C3691A"/>
</svg>
