<svg width="242" height="84" viewBox="0 0 242 84" fill="none" xmlns="http://www.w3.org/2000/svg">
<rect x="7.47481" y="8.60744" width="227.05" height="68.2014" fill="#646464" fill-opacity="0.21" stroke="#030303" stroke-width="0.863309"/>
<path d="M241 31.9574V21.6383V1H1V21.6383V31.9574M241 52.5957V62.9149V83.5532H1V62.9149V52.5957" stroke="white" stroke-width="0.425532"/>
<path d="M40.2696 46.552V53H36.3176V45.59H52.5416C52.9316 46.5 53.1396 47.54 53.1396 48.684V53H49.1876V48.97C49.1876 48.632 49.0836 48.32 48.9276 48.008C48.7716 47.722 48.5376 47.462 48.2776 47.254C48.0176 47.046 47.7056 46.864 47.3676 46.734C47.0296 46.63 46.6916 46.552 46.3536 46.552H40.2696ZM51.6836 44.264C51.9956 44.602 52.2556 45.018 52.4896 45.486H36.3176V44.264H51.6836ZM49.2136 42.938C50.0976 43.094 50.8516 43.484 51.4756 44.056H36.3176V42.938H49.2136ZM43.4416 42.626L44.2476 41.612H49.1876L48.4076 42.626H43.4416ZM44.5856 41.17L45.3136 40.26H50.2276L49.5256 41.17H44.5856ZM36.3176 42.626V41.612H40.2696V42.626H36.3176ZM45.7296 39.74L46.3796 38.934H51.2676L50.6436 39.74H45.7296ZM36.3176 41.17V40.26H40.2696V41.17H36.3176ZM46.8996 38.284L47.4196 37.608H52.2816L51.7616 38.284H46.8996ZM36.3176 39.74V38.934H40.2696V39.74H36.3176ZM36.3176 38.284V37.608H40.2696V38.284H36.3176ZM53.2696 36.36L52.8796 36.854H48.0436L48.4336 36.36H53.2696ZM40.2696 36.36V36.854H36.3176V36.36H40.2696ZM72.7395 53H68.7875V45.59H72.7395V53ZM58.8555 53H54.9035V45.59H58.8555V53ZM71.9595 38.934C72.0115 39.09 72.0895 39.22 72.1415 39.35C72.1935 39.48 72.2715 39.61 72.3235 39.74H54.9035V38.934H71.9595ZM70.8155 37.608C70.9455 37.712 71.0755 37.842 71.1795 37.946C71.2835 38.05 71.3875 38.18 71.4915 38.284H54.9035V37.608H70.8155ZM54.9035 36.36H66.8115C67.3315 36.36 67.7995 36.412 68.2675 36.49C68.7355 36.594 69.1515 36.698 69.5675 36.854H54.9035V36.36ZM68.7875 45.486V44.264H72.7395V45.486H68.7875ZM54.9035 45.486V44.264H58.8555V45.486H54.9035ZM72.4795 40.26C72.5055 40.416 72.5315 40.546 72.5835 40.702C72.6095 40.858 72.6355 41.014 72.6615 41.17H68.2415C67.8775 40.754 67.3835 40.468 66.8115 40.26H72.4795ZM54.9035 44.056V42.938H58.8555V44.056H54.9035ZM68.7875 44.056V42.938H72.7395V44.056H68.7875ZM72.7135 41.612C72.7135 41.716 72.7135 41.846 72.7135 41.95C72.7135 42.054 72.7395 42.158 72.7395 42.262V42.626H68.7875V42.548C68.7875 42.236 68.7095 41.924 68.5535 41.612H72.7135ZM54.9035 42.626V41.612H58.8555V42.626H54.9035ZM54.9035 41.17V40.26H58.8555V41.17H54.9035ZM85.6071 49.23C85.9451 49.23 86.2831 49.178 86.6211 49.048C86.9591 48.944 87.2711 48.762 87.5311 48.554C87.7911 48.346 88.0251 48.086 88.1811 47.774C88.3371 47.488 88.4411 47.176 88.4411 46.812V45.59H92.3931V47.098C92.3931 48.996 91.8471 50.452 90.8071 51.466C89.7411 52.506 88.2851 53 86.4651 53H80.4331C78.5871 53 77.1311 52.506 76.0911 51.466C75.0251 50.452 74.5051 48.996 74.5051 47.098V45.59H78.4571V46.812C78.4571 47.176 78.5351 47.488 78.6911 47.774C78.8471 48.086 79.0811 48.346 79.3411 48.554C79.6011 48.762 79.9131 48.944 80.2511 49.048C80.5891 49.178 80.9271 49.23 81.2911 49.23H85.6071ZM91.6131 38.934C91.6651 39.09 91.7431 39.22 91.7951 39.35C91.8471 39.48 91.9251 39.61 91.9771 39.74H74.9211C74.9731 39.61 75.0251 39.48 75.0771 39.35C75.1291 39.22 75.1811 39.09 75.2851 38.934H91.6131ZM90.4691 37.608C90.5991 37.712 90.7291 37.842 90.8331 37.946C90.9371 38.05 91.0411 38.18 91.1451 38.284H75.7271C75.9351 38.05 76.1431 37.816 76.4031 37.608H90.4691ZM86.4651 36.36C86.9851 36.36 87.4531 36.412 87.9211 36.49C88.3891 36.594 88.8051 36.698 89.2211 36.854H77.6771C78.4831 36.542 79.3931 36.36 80.4331 36.36H86.4651ZM88.4411 45.486V44.264H92.3931V45.486H88.4411ZM74.5051 45.486V44.264H78.4571V45.486H74.5051ZM92.1331 40.26C92.1591 40.416 92.1851 40.546 92.2371 40.702C92.2631 40.858 92.2891 41.014 92.3151 41.17H87.8951C87.5311 40.754 87.0371 40.468 86.4651 40.26H92.1331ZM74.5571 41.17C74.5831 41.014 74.6091 40.858 74.6351 40.702C74.6611 40.546 74.6871 40.416 74.7391 40.26H80.4331C79.8351 40.468 79.3671 40.754 79.0031 41.17H74.5571ZM88.4411 44.056V42.938H92.3931V44.056H88.4411ZM74.5051 44.056V42.938H78.4571V44.056H74.5051ZM92.3931 42.262V42.626H88.4411V42.548C88.4411 42.236 88.3631 41.924 88.2071 41.612H92.3671C92.3671 41.716 92.3671 41.846 92.3671 41.95C92.3671 42.054 92.3931 42.158 92.3931 42.262ZM74.5051 42.262V41.95C74.5051 41.846 74.5051 41.716 74.5311 41.612H78.6911C78.5351 41.924 78.4571 42.236 78.4571 42.548V42.626H74.5051V42.262ZM107.599 49.23H110.303C110.641 49.23 110.979 49.178 111.317 49.048C111.655 48.944 111.967 48.762 112.227 48.554C112.487 48.346 112.721 48.086 112.877 47.774C113.033 47.488 113.137 47.176 113.137 46.812V45.59H117.089V47.098C117.089 48.996 116.543 50.452 115.503 51.466C114.437 52.506 112.981 53 111.161 53H100.085C98.2394 53 96.7834 52.506 95.7434 51.466C94.6774 50.452 94.1574 48.996 94.1574 47.098V45.59H98.1094V46.812C98.1094 47.176 98.1874 47.488 98.3434 47.774C98.4994 48.086 98.7334 48.346 98.9934 48.554C99.2534 48.762 99.5654 48.944 99.9034 49.048C100.241 49.178 100.579 49.23 100.943 49.23H103.647V45.59H107.599V49.23ZM103.647 45.486V44.264H107.599V45.486H103.647ZM94.1574 45.486V44.264H98.1094V45.486H94.1574ZM113.137 45.486V44.264H117.089V45.486H113.137ZM103.647 44.056V42.938H107.599V44.056H103.647ZM94.1574 44.056V42.938H98.1094V44.056H94.1574ZM113.137 44.056V42.938H117.089V44.056H113.137ZM103.647 42.626V41.612H107.599V42.626H103.647ZM94.1574 42.626V41.612H98.1094V42.626H94.1574ZM113.137 42.626V41.612H117.089V42.626H113.137ZM113.137 41.17V40.26H117.089V41.17H113.137ZM103.647 41.17V40.26H107.599V41.17H103.647ZM94.1574 41.17V40.26H98.1094V41.17H94.1574ZM103.647 39.74V38.934H107.599V39.74H103.647ZM113.137 39.74V38.934H117.089V39.74H113.137ZM94.1574 39.74V38.934H98.1094V39.74H94.1574ZM113.137 38.284V37.608H117.089V38.284H113.137ZM103.647 38.284V37.608H107.599V38.284H103.647ZM94.1574 38.284V37.608H98.1094V38.284H94.1574ZM117.089 36.36V36.854H113.137V36.36H117.089ZM98.1094 36.36V36.854H94.1574V36.36H98.1094ZM107.599 36.36V36.854H103.647V36.36H107.599ZM140.023 53H136.071V45.59H140.023V53ZM130.533 53H126.581V45.59H130.533V53ZM149.513 53H145.561V45.59H149.513V53ZM148.733 38.934C148.785 39.09 148.863 39.22 148.915 39.35C148.967 39.48 149.045 39.61 149.097 39.74H126.581V38.934H148.733ZM147.589 37.608C147.719 37.712 147.849 37.842 147.953 37.946C148.057 38.05 148.161 38.18 148.265 38.284H126.581V37.608H147.589ZM126.581 36.854V36.36H143.585C144.105 36.36 144.573 36.412 145.041 36.49C145.509 36.594 145.925 36.698 146.341 36.854H126.581ZM136.071 45.486V44.264H140.023V45.486H136.071ZM145.561 45.486V44.264H149.513V45.486H145.561ZM126.581 45.486V44.264H130.533V45.486H126.581ZM149.253 40.26C149.279 40.416 149.305 40.546 149.357 40.702C149.383 40.858 149.409 41.014 149.435 41.17H145.015C144.651 40.754 144.157 40.468 143.585 40.26H149.253ZM126.581 44.056V42.938H130.533V44.056H126.581ZM145.561 44.056V42.938H149.513V44.056H145.561ZM136.071 44.056V42.938H140.023V44.056H136.071ZM149.487 41.612C149.487 41.716 149.487 41.846 149.487 41.95C149.487 42.054 149.513 42.158 149.513 42.262V42.626H145.561V42.548C145.561 42.236 145.483 41.924 145.327 41.612H149.487ZM126.581 42.626V41.612H130.533V42.626H126.581ZM136.071 42.626V41.612H140.023V42.626H136.071ZM126.581 41.17V40.26H130.533V41.17H126.581ZM136.071 41.17V40.26H140.023V41.17H136.071ZM162.388 49.23C162.726 49.23 163.064 49.178 163.402 49.048C163.74 48.944 164.052 48.762 164.312 48.554C164.572 48.346 164.806 48.086 164.962 47.774C165.118 47.488 165.222 47.176 165.222 46.812V45.59H169.174V47.098C169.174 48.996 168.628 50.452 167.588 51.466C166.522 52.506 165.066 53 163.246 53H157.214C155.368 53 153.912 52.506 152.872 51.466C151.806 50.452 151.286 48.996 151.286 47.098V45.59H155.238V46.812C155.238 47.176 155.316 47.488 155.472 47.774C155.628 48.086 155.862 48.346 156.122 48.554C156.382 48.762 156.694 48.944 157.032 49.048C157.37 49.178 157.708 49.23 158.072 49.23H162.388ZM168.394 38.934C168.446 39.09 168.524 39.22 168.576 39.35C168.628 39.48 168.706 39.61 168.758 39.74H151.702C151.754 39.61 151.806 39.48 151.858 39.35C151.91 39.22 151.962 39.09 152.066 38.934H168.394ZM167.25 37.608C167.38 37.712 167.51 37.842 167.614 37.946C167.718 38.05 167.822 38.18 167.926 38.284H152.508C152.716 38.05 152.924 37.816 153.184 37.608H167.25ZM163.246 36.36C163.766 36.36 164.234 36.412 164.702 36.49C165.17 36.594 165.586 36.698 166.002 36.854H154.458C155.264 36.542 156.174 36.36 157.214 36.36H163.246ZM165.222 45.486V44.264H169.174V45.486H165.222ZM151.286 45.486V44.264H155.238V45.486H151.286ZM168.914 40.26C168.94 40.416 168.966 40.546 169.018 40.702C169.044 40.858 169.07 41.014 169.096 41.17H164.676C164.312 40.754 163.818 40.468 163.246 40.26H168.914ZM151.338 41.17C151.364 41.014 151.39 40.858 151.416 40.702C151.442 40.546 151.468 40.416 151.52 40.26H157.214C156.616 40.468 156.148 40.754 155.784 41.17H151.338ZM165.222 44.056V42.938H169.174V44.056H165.222ZM151.286 44.056V42.938H155.238V44.056H151.286ZM169.174 42.262V42.626H165.222V42.548C165.222 42.236 165.144 41.924 164.988 41.612H169.148C169.148 41.716 169.148 41.846 169.148 41.95C169.148 42.054 169.174 42.158 169.174 42.262ZM151.286 42.262V41.95C151.286 41.846 151.286 41.716 151.312 41.612H155.472C155.316 41.924 155.238 42.236 155.238 42.548V42.626H151.286V42.262ZM170.939 53V45.59H186.981C187.215 45.876 187.397 46.188 187.553 46.526C187.683 46.864 187.761 47.384 187.761 48.086V53H183.783V48.164C183.783 47.956 183.705 47.722 183.575 47.436C183.445 47.15 183.159 46.942 182.691 46.838H174.891V53H170.939ZM186.383 44.992L186.877 45.486H170.939V44.264H186.981C186.877 44.42 186.799 44.55 186.695 44.654C186.591 44.758 186.487 44.888 186.383 44.992ZM182.743 43.068C182.821 43.068 182.899 43.042 182.977 43.016C183.029 43.016 183.107 42.99 183.159 42.938H187.631C187.579 43.172 187.501 43.38 187.423 43.562C187.319 43.744 187.241 43.9 187.137 44.056H170.939V42.938H174.891V43.068H182.743ZM187.241 38.934C187.293 39.09 187.345 39.22 187.397 39.35C187.449 39.48 187.475 39.61 187.527 39.74H170.939V38.934H187.241ZM186.279 37.608C186.487 37.842 186.669 38.076 186.877 38.284H170.939V37.608H186.279ZM182.561 36.36C183.523 36.36 184.381 36.542 185.135 36.854H170.939V36.36H182.561ZM187.761 41.612C187.761 42.028 187.735 42.366 187.683 42.626H183.523C183.653 42.47 183.731 42.314 183.783 42.132C183.809 41.95 183.835 41.794 183.835 41.638V41.612H187.761ZM170.939 42.626V41.612H174.891V42.626H170.939ZM187.631 40.26C187.657 40.416 187.683 40.572 187.709 40.728C187.709 40.884 187.735 41.014 187.735 41.17H183.783C183.731 41.014 183.679 40.832 183.575 40.676C183.471 40.52 183.315 40.364 183.107 40.26H187.631ZM170.939 41.17V40.26H174.891V41.17H170.939ZM205.671 53H195.453C193.607 53 192.151 52.506 191.111 51.466C190.045 50.452 189.525 48.996 189.525 47.098V45.59H205.671V46.552H193.477V46.812C193.477 47.176 193.555 47.488 193.711 47.774C193.867 48.086 194.101 48.346 194.361 48.554C194.621 48.762 194.933 48.944 195.271 49.048C195.609 49.178 195.947 49.23 196.311 49.23H205.671V53ZM189.525 45.486V44.264H205.671V45.486H189.525ZM189.525 44.056V42.938H205.671V44.056H189.525ZM189.941 39.74C189.993 39.61 190.045 39.48 190.097 39.35C190.149 39.22 190.201 39.09 190.305 38.934H205.671V39.74H189.941ZM190.747 38.284C190.955 38.05 191.163 37.816 191.423 37.608H205.671V38.284H190.747ZM205.671 36.36V36.854H192.697C193.503 36.542 194.413 36.36 195.453 36.36H205.671ZM195.453 40.26C194.855 40.468 194.387 40.754 194.023 41.17H189.577C189.603 41.014 189.629 40.858 189.655 40.702C189.681 40.546 189.707 40.416 189.759 40.26H195.453ZM193.477 42.548V42.626H189.525V42.262V41.95C189.525 41.846 189.525 41.716 189.551 41.612H193.711C193.555 41.924 193.477 42.236 193.477 42.548Z" fill="white"/>
</svg>
