<svg width="242" height="84" viewBox="0 0 242 84" fill="none" xmlns="http://www.w3.org/2000/svg">
<rect x="7.47481" y="8.60744" width="227.05" height="68.2014" fill="white" stroke="#030303" stroke-width="0.863309"/>
<path d="M241 31.9574V21.6383V1H1V21.6383V31.9574M241 52.5957V62.9149V83.5532H1V62.9149V52.5957" stroke="white" stroke-width="0.425532"/>
<path d="M40.2696 46.552V53H36.3176V36.36H40.2696V42.782H43.3116L48.4336 36.36H53.2696L48.2256 42.86C49.0056 42.86 49.7076 43.016 50.3316 43.302C50.9556 43.588 51.4756 43.978 51.8916 44.498C52.3076 45.018 52.6196 45.642 52.8276 46.344C53.0356 47.072 53.1396 47.852 53.1396 48.684V53H49.1876V48.97C49.1876 48.632 49.0836 48.32 48.9276 48.008C48.7716 47.722 48.5376 47.462 48.2776 47.254C48.0176 47.046 47.7056 46.864 47.3676 46.734C47.0296 46.63 46.6916 46.552 46.3536 46.552H40.2696ZM54.9035 36.36H66.8115C68.6315 36.36 70.0875 36.88 71.1535 37.894C72.1935 38.934 72.7395 40.39 72.7395 42.262V53H68.7875V42.548C68.7875 42.21 68.6835 41.898 68.5275 41.586C68.3715 41.3 68.1375 41.04 67.8775 40.832C67.6175 40.624 67.3055 40.442 66.9675 40.312C66.6295 40.208 66.2915 40.13 65.9535 40.13H58.8555V53H54.9035V36.36ZM92.3931 42.262V47.098C92.3931 48.996 91.8471 50.452 90.8071 51.466C89.7411 52.506 88.2851 53 86.4651 53H80.4331C78.5871 53 77.1311 52.506 76.0911 51.466C75.0251 50.452 74.5051 48.996 74.5051 47.098V42.262C74.5051 40.39 75.0251 38.934 76.0911 37.894C77.1311 36.88 78.5871 36.36 80.4331 36.36H86.4651C88.2851 36.36 89.7411 36.88 90.8071 37.894C91.8471 38.934 92.3931 40.39 92.3931 42.262ZM85.6071 49.23C85.9451 49.23 86.2831 49.178 86.6211 49.048C86.9591 48.944 87.2711 48.762 87.5311 48.554C87.7911 48.346 88.0251 48.086 88.1811 47.774C88.3371 47.488 88.4411 47.176 88.4411 46.812V42.548C88.4411 42.21 88.3371 41.898 88.1811 41.586C88.0251 41.3 87.7911 41.04 87.5311 40.832C87.2711 40.624 86.9591 40.442 86.6211 40.312C86.2831 40.208 85.9451 40.13 85.6071 40.13H81.2911C80.9271 40.13 80.5891 40.208 80.2511 40.312C79.9131 40.442 79.6011 40.624 79.3411 40.832C79.0811 41.04 78.8471 41.3 78.6911 41.586C78.5351 41.898 78.4571 42.21 78.4571 42.548V46.812C78.4571 47.176 78.5351 47.488 78.6911 47.774C78.8471 48.086 79.0811 48.346 79.3411 48.554C79.6011 48.762 79.9131 48.944 80.2511 49.048C80.5891 49.178 80.9271 49.23 81.2911 49.23H85.6071ZM107.599 49.23H110.303C110.641 49.23 110.979 49.178 111.317 49.048C111.655 48.944 111.967 48.762 112.227 48.554C112.487 48.346 112.721 48.086 112.877 47.774C113.033 47.488 113.137 47.176 113.137 46.812V36.36H117.089V47.098C117.089 48.996 116.543 50.452 115.503 51.466C114.437 52.506 112.981 53 111.161 53H100.085C98.2394 53 96.7834 52.506 95.7434 51.466C94.6774 50.452 94.1574 48.996 94.1574 47.098V36.36H98.1094V46.812C98.1094 47.176 98.1874 47.488 98.3434 47.774C98.4994 48.086 98.7334 48.346 98.9934 48.554C99.2534 48.762 99.5654 48.944 99.9034 49.048C100.241 49.178 100.579 49.23 100.943 49.23H103.647V36.36H107.599V49.23ZM140.023 40.13V53H136.071V40.13H130.533V53H126.581V36.36H143.585C145.405 36.36 146.861 36.88 147.927 37.894C148.967 38.934 149.513 40.39 149.513 42.262V53H145.561V42.548C145.561 42.21 145.457 41.898 145.301 41.586C145.145 41.3 144.911 41.04 144.651 40.832C144.391 40.624 144.079 40.442 143.741 40.312C143.403 40.208 143.065 40.13 142.727 40.13H140.023ZM169.174 42.262V47.098C169.174 48.996 168.628 50.452 167.588 51.466C166.522 52.506 165.066 53 163.246 53H157.214C155.368 53 153.912 52.506 152.872 51.466C151.806 50.452 151.286 48.996 151.286 47.098V42.262C151.286 40.39 151.806 38.934 152.872 37.894C153.912 36.88 155.368 36.36 157.214 36.36H163.246C165.066 36.36 166.522 36.88 167.588 37.894C168.628 38.934 169.174 40.39 169.174 42.262ZM162.388 49.23C162.726 49.23 163.064 49.178 163.402 49.048C163.74 48.944 164.052 48.762 164.312 48.554C164.572 48.346 164.806 48.086 164.962 47.774C165.118 47.488 165.222 47.176 165.222 46.812V42.548C165.222 42.21 165.118 41.898 164.962 41.586C164.806 41.3 164.572 41.04 164.312 40.832C164.052 40.624 163.74 40.442 163.402 40.312C163.064 40.208 162.726 40.13 162.388 40.13H158.072C157.708 40.13 157.37 40.208 157.032 40.312C156.694 40.442 156.382 40.624 156.122 40.832C155.862 41.04 155.628 41.3 155.472 41.586C155.316 41.898 155.238 42.21 155.238 42.548V46.812C155.238 47.176 155.316 47.488 155.472 47.774C155.628 48.086 155.862 48.346 156.122 48.554C156.382 48.762 156.694 48.944 157.032 49.048C157.37 49.178 157.708 49.23 158.072 49.23H162.388ZM170.939 53V36.36H182.561C184.329 36.36 185.629 36.854 186.487 37.816C187.319 38.778 187.761 40.026 187.761 41.586C187.761 42.054 187.709 42.444 187.657 42.756C187.605 43.068 187.501 43.354 187.397 43.614C187.267 43.874 187.111 44.108 186.955 44.316C186.773 44.55 186.591 44.784 186.383 44.992L186.955 45.564C187.111 45.746 187.267 45.954 187.397 46.162C187.501 46.37 187.605 46.63 187.657 46.942C187.709 47.254 187.761 47.618 187.761 48.086V53H183.783V48.164C183.783 47.956 183.705 47.722 183.575 47.436C183.445 47.15 183.159 46.942 182.691 46.838H174.891V53H170.939ZM182.743 43.068C182.951 43.042 183.133 42.964 183.289 42.86C183.445 42.756 183.549 42.626 183.627 42.47C183.705 42.314 183.757 42.184 183.783 42.028C183.809 41.872 183.835 41.742 183.835 41.638C183.835 41.534 183.809 41.404 183.783 41.222C183.757 41.066 183.705 40.884 183.601 40.728C183.497 40.572 183.367 40.416 183.185 40.312C183.003 40.208 182.769 40.13 182.457 40.13H174.891V43.068H182.743ZM205.671 53H195.453C193.607 53 192.151 52.506 191.111 51.466C190.045 50.452 189.525 48.996 189.525 47.098V42.262C189.525 40.39 190.045 38.934 191.111 37.894C192.151 36.88 193.607 36.36 195.453 36.36H205.671V40.13H196.311C195.947 40.13 195.609 40.208 195.271 40.312C194.933 40.442 194.621 40.624 194.361 40.832C194.101 41.04 193.867 41.3 193.711 41.586C193.555 41.898 193.477 42.21 193.477 42.548V42.808H205.671V46.552H193.477V46.812C193.477 47.176 193.555 47.488 193.711 47.774C193.867 48.086 194.101 48.346 194.361 48.554C194.621 48.762 194.933 48.944 195.271 49.048C195.609 49.178 195.947 49.23 196.311 49.23H205.671V53Z" fill="#171717"/>
</svg>
