<svg width="349" height="36" viewBox="0 0 349 36" fill="none" xmlns="http://www.w3.org/2000/svg">
    <path
            d="M1.19846 31.5547V19.5382C1.19846 19.0315 1.32171 18.5659 1.5682 18.1414C1.81469 17.7169 2.1502 17.3814 2.57471 17.1349C2.99923 16.8884 3.46483 16.7651 3.9715 16.7651H13.215C13.7217 16.7651 14.1804 16.8884 14.5912 17.1349C15.0157 17.3814 15.3513 17.7169 15.5977 18.1414C15.8579 18.5659 15.988 19.0315 15.988 19.5382V31.5547H13.5026V26.481H3.66339V31.5547H1.19846ZM3.66339 24.0161H13.5026V19.6203C13.5026 19.5108 13.4615 19.4218 13.3793 19.3533C13.3108 19.2848 13.2287 19.2506 13.1328 19.2506H4.03313C3.93727 19.2506 3.84826 19.2848 3.76609 19.3533C3.69762 19.4218 3.66339 19.5108 3.66339 19.6203V24.0161ZM20.4031 31.5547C19.8964 31.5547 19.4308 31.4314 19.0063 31.1849C18.5955 30.9248 18.2668 30.5893 18.0203 30.1784C17.7738 29.7676 17.6506 29.3089 17.6506 28.8022V22.3934C17.6506 21.8867 17.7738 21.4279 18.0203 21.0171C18.2668 20.6063 18.5955 20.2776 19.0063 20.0312C19.4308 19.771 19.8964 19.6409 20.4031 19.6409H27.3254V15.7381H29.7698V31.5547H20.4031ZM20.5058 29.1103H26.9351C27.0447 29.1103 27.1337 29.0761 27.2022 29.0076C27.2843 28.9254 27.3254 28.8296 27.3254 28.72V22.4755C27.3254 22.366 27.2843 22.277 27.2022 22.2085C27.1337 22.1263 27.0447 22.0853 26.9351 22.0853H20.5058C20.3962 22.0853 20.3004 22.1263 20.2182 22.2085C20.1497 22.277 20.1155 22.366 20.1155 22.4755V28.72C20.1155 28.8296 20.1497 28.9254 20.2182 29.0076C20.3004 29.0761 20.3962 29.1103 20.5058 29.1103ZM34.6995 31.5547C34.1928 31.5547 33.7272 31.4314 33.3027 31.1849C32.8919 30.9248 32.5632 30.5893 32.3167 30.1784C32.0702 29.7676 31.947 29.3089 31.947 28.8022V24.3653H41.6013V22.4755C41.6013 22.366 41.5602 22.277 41.478 22.2085C41.4096 22.1263 41.3206 22.0853 41.211 22.0853H31.947V19.6409H41.2932C41.8135 19.6409 42.2791 19.771 42.69 20.0312C43.1008 20.2776 43.4294 20.6063 43.6759 21.0171C43.9224 21.4279 44.0457 21.8867 44.0457 22.3934V31.5547H34.6995ZM34.7817 29.1103H41.6013V26.6043H34.3914V28.72C34.3914 28.8296 34.4256 28.9254 34.4941 29.0076C34.5762 29.0761 34.6721 29.1103 34.7817 29.1103ZM45.749 31.5547V19.6409H60.7439C61.2643 19.6409 61.7299 19.771 62.1407 20.0312C62.5516 20.2776 62.8802 20.6063 63.1267 21.0171C63.3732 21.4279 63.4964 21.8867 63.4964 22.3934V31.5547H61.0521V22.4755C61.0521 22.366 61.011 22.277 60.9288 22.2085C60.8603 22.1263 60.7713 22.0853 60.6618 22.0853H56.2455C56.1496 22.0853 56.0606 22.1263 55.9784 22.2085C55.91 22.277 55.8757 22.366 55.8757 22.4755V31.5547H53.3902V22.4755C53.3902 22.366 53.356 22.277 53.2875 22.2085C53.2191 22.1263 53.1301 22.0853 53.0205 22.0853H48.5836C48.4878 22.0853 48.3988 22.1263 48.3166 22.2085C48.2481 22.277 48.2139 22.366 48.2139 22.4755V31.5547H45.749ZM72.0495 31.5547V16.7651H83.4704C83.9771 16.7651 84.4358 16.8884 84.8466 17.1349C85.2711 17.3814 85.6066 17.7169 85.8531 18.1414C86.1133 18.5659 86.2434 19.0315 86.2434 19.5382V22.4755C86.2434 22.6673 86.2229 22.8521 86.1818 23.0301C86.1544 23.1945 86.1065 23.352 86.038 23.5026C86.2845 23.8449 86.4762 24.1873 86.6132 24.5296C86.7638 24.8583 86.8391 25.1938 86.8391 25.5362V28.7816C86.8391 29.2883 86.709 29.7539 86.4488 30.1784C86.2023 30.603 85.8668 30.9385 85.4423 31.1849C85.0315 31.4314 84.5727 31.5547 84.0661 31.5547H72.0495ZM74.8842 29.0692H83.9839C84.0798 29.0692 84.1619 29.035 84.2304 28.9665C84.3126 28.898 84.3536 28.809 84.3536 28.6995V25.6389C84.3536 25.5293 84.3126 25.4403 84.2304 25.3718C84.1619 25.3034 84.0798 25.2691 83.9839 25.2691H74.8842C74.7884 25.2691 74.6993 25.3034 74.6172 25.3718C74.5487 25.4403 74.5145 25.5293 74.5145 25.6389V28.6995C74.5145 28.809 74.5487 28.898 74.6172 28.9665C74.6993 29.035 74.7884 29.0692 74.8842 29.0692ZM74.8842 22.7837H83.3677C83.4772 22.7837 83.5662 22.7494 83.6347 22.6809C83.7032 22.5988 83.7374 22.5098 83.7374 22.4139V19.6203C83.7374 19.5108 83.7032 19.4218 83.6347 19.3533C83.5662 19.2848 83.4772 19.2506 83.3677 19.2506H74.8842C74.7884 19.2506 74.6993 19.2848 74.6172 19.3533C74.5487 19.4218 74.5145 19.5108 74.5145 19.6203V22.4139C74.5145 22.5098 74.5487 22.5988 74.6172 22.6809C74.6993 22.7494 74.7884 22.7837 74.8842 22.7837ZM88.9966 31.5547V22.3934C88.9966 21.8867 89.1198 21.4279 89.3663 21.0171C89.6265 20.6063 89.962 20.2776 90.3728 20.0312C90.7973 19.771 91.2561 19.6409 91.7491 19.6409H98.3838V22.0853H91.8312C91.7217 22.0853 91.6258 22.1263 91.5437 22.2085C91.4752 22.277 91.4409 22.366 91.4409 22.4755V31.5547H88.9966ZM99.8689 31.5547V19.6409H102.313V31.5547H99.8689ZM99.8689 18.203V15.7381H102.313V18.203H99.8689ZM107.356 31.5547C106.849 31.5547 106.384 31.4314 105.959 31.1849C105.548 30.9248 105.22 30.5893 104.973 30.1784C104.727 29.7676 104.603 29.3089 104.603 28.8022V15.9229H107.048V19.6409H111.813V22.0853H107.048V28.72C107.048 28.8296 107.082 28.9254 107.151 29.0076C107.233 29.0761 107.329 29.1103 107.438 29.1103H111.813V31.5547H107.356ZM116.323 31.5547C115.816 31.5547 115.35 31.4314 114.926 31.1849C114.515 30.9248 114.186 30.5893 113.94 30.1784C113.693 29.7676 113.57 29.3089 113.57 28.8022V15.9229H116.014V19.6409H120.78V22.0853H116.014V28.72C116.014 28.8296 116.049 28.9254 116.117 29.0076C116.199 29.0761 116.295 29.1103 116.405 29.1103H120.78V31.5547H116.323ZM125.489 31.5547C124.983 31.5547 124.517 31.4314 124.093 31.1849C123.682 30.9248 123.353 30.5893 123.107 30.1784C122.86 29.7676 122.737 29.3089 122.737 28.8022V24.3653H132.391V22.4755C132.391 22.366 132.35 22.277 132.268 22.2085C132.199 22.1263 132.11 22.0853 132.001 22.0853H122.737V19.6409H132.083C132.603 19.6409 133.069 19.771 133.48 20.0312C133.891 20.2776 134.219 20.6063 134.466 21.0171C134.712 21.4279 134.836 21.8867 134.836 22.3934V31.5547H125.489ZM125.572 29.1103H132.391V26.6043H125.181V28.72C125.181 28.8296 125.215 28.9254 125.284 29.0076C125.366 29.0761 125.462 29.1103 125.572 29.1103ZM136.8 31.5547V19.6409H146.166C146.659 19.6409 147.111 19.771 147.522 20.0312C147.947 20.2776 148.282 20.6063 148.529 21.0171C148.775 21.4279 148.898 21.8867 148.898 22.3934V31.5547H146.454V22.4755C146.454 22.366 146.413 22.277 146.331 22.2085C146.262 22.1263 146.18 22.0853 146.084 22.0853H139.634C139.538 22.0853 139.449 22.1263 139.367 22.2085C139.285 22.277 139.244 22.366 139.244 22.4755V31.5547H136.8Z"
            fill="white"/>
    <path
            d="M2.15397 8C1.91433 8 1.69565 7.94308 1.49794 7.82925C1.30623 7.70943 1.15046 7.55366 1.03064 7.36194C0.916804 7.16424 0.859888 6.94556 0.859888 6.70591V2.82365C0.859888 2.58401 0.916804 2.36833 1.03064 2.17661C1.15046 1.9789 1.30623 1.82313 1.49794 1.7093C1.69565 1.58948 1.91433 1.52957 2.15397 1.52957H7.31235V2.83264H2.45952C2.36366 2.83264 2.28878 2.8596 2.23486 2.91352C2.18094 2.96145 2.15397 3.03634 2.15397 3.13819V6.39138C2.15397 6.48724 2.18094 6.56213 2.23486 6.61605C2.28878 6.66997 2.36366 6.69693 2.45952 6.69693H7.31235V8H2.15397ZM9.52547 8C9.28582 8 9.06714 7.94308 8.86944 7.82925C8.67772 7.70943 8.52195 7.55366 8.40213 7.36194C8.2883 7.16424 8.23138 6.94556 8.23138 6.70591V2.82365C8.23138 2.58401 8.2883 2.36833 8.40213 2.17661C8.52195 1.9789 8.67772 1.82313 8.86944 1.7093C9.06714 1.58948 9.28582 1.52957 9.52547 1.52957H13.4077C13.6414 1.52957 13.8541 1.58948 14.0458 1.7093C14.2435 1.82313 14.4023 1.9789 14.5221 2.17661C14.6419 2.36833 14.7018 2.58401 14.7018 2.82365V6.70591C14.7018 6.94556 14.6419 7.16424 14.5221 7.36194C14.4023 7.55366 14.2435 7.70943 14.0458 7.82925C13.8541 7.94308 13.6414 8 13.4077 8H9.52547ZM9.57939 6.69693H13.3358C13.3538 6.69693 13.3658 6.69393 13.3718 6.68794C13.3838 6.67596 13.3898 6.66098 13.3898 6.64301V2.88656C13.3898 2.86859 13.3838 2.8566 13.3718 2.85061C13.3658 2.83863 13.3538 2.83264 13.3358 2.83264H9.57939C9.56141 2.83264 9.54644 2.83863 9.53445 2.85061C9.52846 2.8566 9.52547 2.86859 9.52547 2.88656V6.64301C9.52547 6.66098 9.52846 6.67596 9.53445 6.68794C9.54644 6.69393 9.56141 6.69693 9.57939 6.69693ZM15.6915 8V1.52957H17.0664L19.3311 4.23457L21.5868 1.52957H22.9707V8H21.6676V3.46171L19.3311 6.25658L16.9856 3.4707V8H15.6915ZM24.0288 8V1.52957H25.4037L27.6684 4.23457L29.924 1.52957H31.308V8H30.0049V3.46171L27.6684 6.25658L25.3228 3.4707V8H24.0288ZM32.384 8V2.82365C32.384 2.58401 32.4409 2.36833 32.5548 2.17661C32.6746 1.9789 32.8304 1.82313 33.0221 1.7093C33.2198 1.58948 33.4385 1.52957 33.6781 1.52957H37.5514C37.791 1.52957 38.0067 1.58948 38.1984 1.7093C38.3961 1.82313 38.5549 1.9789 38.6747 2.17661C38.7945 2.36833 38.8544 2.58401 38.8544 2.82365V8H37.5424V5.87015H33.6781V8H32.384ZM33.6781 4.57606H37.5424V2.88656C37.5424 2.86859 37.5364 2.8566 37.5244 2.85061C37.5184 2.83863 37.5064 2.83264 37.4885 2.83264H33.732C33.714 2.83264 33.6991 2.83863 33.6871 2.85061C33.6811 2.8566 33.6781 2.86859 33.6781 2.88656V4.57606ZM39.8784 8V1.52957H41.2533L45.0367 6.0409V1.52957H46.3488V8H44.9738L41.1725 3.4707V8H39.8784ZM47.3736 8V1.52957H52.5409C52.7806 1.52957 52.9963 1.58948 53.188 1.7093C53.3857 1.82313 53.5445 1.9789 53.6643 2.17661C53.7841 2.36833 53.844 2.58401 53.844 2.82365V6.70591C53.844 6.94556 53.7841 7.16424 53.6643 7.36194C53.5445 7.55366 53.3857 7.70943 53.188 7.82925C52.9963 7.94308 52.7806 8 52.5409 8H47.3736ZM48.7126 6.69693H52.478C52.496 6.69693 52.508 6.69393 52.514 6.68794C52.526 6.67596 52.5319 6.66098 52.5319 6.64301V2.88656C52.5319 2.86859 52.526 2.8566 52.514 2.85061C52.508 2.83863 52.496 2.83264 52.478 2.83264H48.7126C48.7006 2.83264 48.6886 2.83863 48.6766 2.85061C48.6647 2.8566 48.6587 2.86859 48.6587 2.88656V6.64301C48.6587 6.66098 48.6647 6.67596 48.6766 6.68794C48.6886 6.69393 48.7006 6.69693 48.7126 6.69693ZM54.8684 8V1.52957H60.8355V2.83264H56.1804V4.10875H59.9279V5.42081H56.1804V6.69693H60.8355V8H54.8684ZM66.8173 8L64.9031 5.71737H66.6016L68.1833 7.5956V8H66.8173ZM61.7308 8V1.53855H66.8982C67.1378 1.53855 67.3535 1.59846 67.5452 1.71829C67.7429 1.83212 67.9017 1.98789 68.0215 2.1856C68.1414 2.3833 68.2013 2.59898 68.2013 2.83264V4.54012C68.2013 4.77377 68.1414 4.98945 68.0215 5.18716C67.9017 5.37888 67.7429 5.53464 67.5452 5.65447C67.3535 5.7683 67.1378 5.82522 66.8982 5.82522L63.0249 5.8342V8H61.7308ZM63.0788 4.52214H66.8353C66.8533 4.52214 66.8652 4.51915 66.8712 4.51316C66.8832 4.50117 66.8892 4.48919 66.8892 4.47721V2.88656C66.8892 2.86859 66.8832 2.8566 66.8712 2.85061C66.8652 2.83863 66.8533 2.83264 66.8353 2.83264H63.0788C63.0609 2.83264 63.0459 2.83863 63.0339 2.85061C63.0279 2.8566 63.0249 2.86859 63.0249 2.88656V4.47721C63.0249 4.48919 63.0279 4.50117 63.0339 4.51316C63.0459 4.51915 63.0609 4.52214 63.0788 4.52214Z"
            fill="#FBB03B" fill-opacity="0.47"/>
    <path
            d="M339 16C337.022 16 335.089 16.5865 333.444 17.6853C331.8 18.7841 330.518 20.3459 329.761 22.1732C329.004 24.0004 328.806 26.0111 329.192 27.9509C329.578 29.8907 330.53 31.6725 331.929 33.0711C333.327 34.4696 335.109 35.422 337.049 35.8078C338.989 36.1937 341 35.9957 342.827 35.2388C344.654 34.4819 346.216 33.2002 347.315 31.5557C348.414 29.9112 349 27.9778 349 26C348.997 23.3487 347.943 20.8068 346.068 18.932C344.193 17.0573 341.651 16.0028 339 16ZM339 34.4615C337.326 34.4615 335.691 33.9653 334.299 33.0355C332.908 32.1057 331.823 30.7842 331.183 29.2381C330.542 27.6919 330.375 25.9906 330.701 24.3492C331.028 22.7079 331.833 21.2002 333.017 20.0168C334.2 18.8334 335.708 18.0275 337.349 17.701C338.991 17.3746 340.692 17.5421 342.238 18.1826C343.784 18.823 345.106 19.9075 346.036 21.299C346.965 22.6905 347.462 24.3265 347.462 26C347.459 28.2434 346.567 30.3941 344.98 31.9804C343.394 33.5667 341.243 34.459 339 34.4615ZM340.538 30.6154C340.538 30.8194 340.457 31.0151 340.313 31.1593C340.169 31.3036 339.973 31.3846 339.769 31.3846C339.361 31.3846 338.97 31.2225 338.681 30.934C338.393 30.6455 338.231 30.2542 338.231 29.8462V26C338.027 26 337.831 25.919 337.687 25.7747C337.543 25.6304 337.462 25.4348 337.462 25.2308C337.462 25.0268 337.543 24.8311 337.687 24.6868C337.831 24.5426 338.027 24.4615 338.231 24.4615C338.639 24.4615 339.03 24.6236 339.319 24.9121C339.607 25.2007 339.769 25.592 339.769 26V29.8462C339.973 29.8462 340.169 29.9272 340.313 30.0715C340.457 30.2157 340.538 30.4114 340.538 30.6154ZM337.462 21.7692C337.462 21.541 337.529 21.3179 337.656 21.1282C337.783 20.9384 337.963 20.7905 338.174 20.7032C338.385 20.6159 338.617 20.593 338.84 20.6376C339.064 20.6821 339.27 20.792 339.431 20.9533C339.593 21.1147 339.703 21.3203 339.747 21.5441C339.792 21.7679 339.769 21.9999 339.681 22.2108C339.594 22.4216 339.446 22.6018 339.256 22.7286C339.067 22.8554 338.844 22.9231 338.615 22.9231C338.309 22.9231 338.016 22.8015 337.799 22.5851C337.583 22.3687 337.462 22.0752 337.462 21.7692Z"
            fill="white" fill-opacity="0.81"/>
</svg>